<svg version="1.1" id="Layer_1" xmlns="http://www.w3.org/2000/svg" xmlns:xlink="http://www.w3.org/1999/xlink" x="0px" y="0px"
	 width="100%" viewBox="0 0 512 512" enable-background="new 0 0 512 512" xml:space="preserve">
<path fill="#32BEA6" opacity="1.000000" stroke="none" 
	d="
M235.000000,1.000001 
	C249.354233,1.000000 263.708466,1.000000 278.742218,1.370276 
	C287.371002,2.808612 295.332520,3.793238 303.267181,4.960453 
	C326.567505,8.388018 348.546661,16.110386 369.606171,26.351416 
	C389.556091,36.052864 407.942932,48.197472 424.623566,62.980068 
	C440.372803,76.937210 454.635071,92.128304 466.840576,109.286400 
	C479.615784,127.245384 489.852753,146.572433 497.490173,167.176086 
	C504.134064,185.099442 509.006592,203.555634 511.041626,222.664352 
	C511.481964,226.798859 512.336304,230.889282 513.000000,235.000000 
	C513.000000,249.354233 513.000000,263.708466 512.629761,278.742218 
	C511.191376,287.370972 510.206665,295.332458 509.039520,303.267090 
	C505.612061,326.567444 497.889679,348.546600 487.648651,369.606110 
	C477.947235,389.556091 465.802582,407.942902 451.019989,424.623566 
	C437.062836,440.372803 421.871674,454.635040 404.713593,466.840515 
	C386.754608,479.615814 367.427551,489.852722 346.823883,497.490173 
	C328.900513,504.134033 310.444336,509.006592 291.335632,511.041626 
	C287.201141,511.481964 283.110718,512.336304 279.000000,513.000000 
	C264.645782,513.000000 250.291550,513.000000 235.257782,512.629761 
	C226.629013,511.191376 218.667496,510.206787 210.732834,509.039612 
	C187.432495,505.612000 165.453354,497.889618 144.393784,487.648590 
	C124.443871,477.947113 106.057037,465.802551 89.376411,451.019958 
	C73.627182,437.062836 59.364952,421.871674 47.159451,404.713593 
	C34.384232,386.754578 24.147179,367.427551 16.509783,346.823883 
	C9.865932,328.900513 4.993462,310.444336 2.958403,291.335632 
	C2.518083,287.201111 1.663676,283.110718 1.000001,279.000000 
	C1.000000,264.645782 1.000000,250.291550 1.370279,235.257782 
	C2.808610,226.629059 3.793259,218.667572 4.960436,210.732956 
	C8.387906,187.432587 16.110363,165.453445 26.351368,144.393906 
	C36.052792,124.443947 48.197418,106.057129 62.980030,89.376472 
	C76.937195,73.627258 92.128281,59.364948 109.286392,47.159454 
	C127.245399,34.384243 146.572433,24.147224 167.176102,16.509806 
	C185.099457,9.865931 203.555649,4.993463 222.664368,2.958402 
	C226.798874,2.518082 230.889282,1.663676 235.000000,1.000001 
M341.591309,217.927643 
	C296.328766,190.137085 251.048477,162.375381 205.824326,134.522476 
	C199.575485,130.673904 193.264801,129.059738 186.551865,132.801697 
	C179.951645,136.480804 178.213486,142.733444 178.215073,149.797302 
	C178.231079,221.445572 178.232193,293.093842 178.214493,364.742126 
	C178.212738,371.841064 180.144409,377.990997 186.683899,381.685303 
	C193.242859,385.390564 199.403015,383.772888 205.507782,380.047638 
	C264.062439,344.315979 322.671417,308.673279 381.236145,272.958099 
	C394.821411,264.673279 394.859406,250.718338 381.372711,242.351257 
	C368.356506,234.276047 355.276733,226.303314 341.591309,217.927643 
z"/>

<path fill="#FEFFFF" opacity="1.000000" stroke="none" 
	d="
M341.908081,218.106598 
	C355.276733,226.303314 368.356506,234.276047 381.372711,242.351257 
	C394.859406,250.718338 394.821411,264.673279 381.236145,272.958099 
	C322.671417,308.673279 264.062439,344.315979 205.507782,380.047638 
	C199.403015,383.772888 193.242859,385.390564 186.683899,381.685303 
	C180.144409,377.990997 178.212738,371.841064 178.214493,364.742126 
	C178.232193,293.093842 178.231079,221.445572 178.215073,149.797302 
	C178.213486,142.733444 179.951645,136.480804 186.551865,132.801697 
	C193.264801,129.059738 199.575485,130.673904 205.824326,134.522476 
	C251.048477,162.375381 296.328766,190.137085 341.908081,218.106598 
z"/>
</svg>