<svg version="1.1" id="Layer_1" xmlns="http://www.w3.org/2000/svg" xmlns:xlink="http://www.w3.org/1999/xlink" x="0px" y="0px"
	 width="100%" viewBox="0 0 512 512" enable-background="new 0 0 512 512" xml:space="preserve">

<path fill="#CA2DED" opacity="1.000000" stroke="none" 
	d="
M66.042496,409.113037 
	C60.637287,413.625214 55.298756,417.730103 47.422554,417.132050 
	C39.199524,416.507629 33.002850,410.729126 33.002312,402.328613 
	C32.996128,305.685059 33.064899,209.041412 32.918026,112.398087 
	C32.898621,99.628899 44.963593,93.933983 55.917088,98.097305 
	C59.466763,99.446495 62.497898,102.159950 65.915657,104.944832 
	C71.735443,113.046310 69.956055,121.696808 69.961960,129.972961 
	C70.023643,216.407684 70.012321,302.842468 69.973984,389.277222 
	C69.971252,395.448517 71.426529,401.988892 66.295525,407.170929 
	C65.930099,407.539978 66.114021,408.452972 66.042496,409.113037 
z"/>
<path fill="#C631ED" opacity="1.000000" stroke="none" 
	d="
M66.365288,408.970673 
	C66.114021,408.452972 65.930099,407.539978 66.295525,407.170929 
	C71.426529,401.988892 69.971252,395.448517 69.973984,389.277222 
	C70.012321,302.842468 70.023643,216.407684 69.961960,129.972961 
	C69.956055,121.696808 71.735443,113.046310 66.053757,105.263550 
	C75.950325,111.676414 85.858223,118.466026 95.922226,125.998238 
	C96.385551,130.038574 96.958908,133.336151 96.961006,136.634094 
	C97.011147,215.333084 97.017891,294.032104 96.958855,372.731079 
	C96.955009,377.859009 96.360733,382.986481 96.041100,388.114166 
	C86.256760,395.018890 76.472420,401.923584 66.365288,408.970673 
z"/>
<path fill="#C136ED" opacity="1.000000" stroke="none" 
	d="
M96.398666,388.058960 
	C96.360733,382.986481 96.955009,377.859009 96.958855,372.731079 
	C97.017891,294.032104 97.011147,215.333084 96.961006,136.634094 
	C96.958908,133.336151 96.385551,130.038574 96.059631,126.313232 
	C102.616333,130.344376 109.191734,134.803116 115.922249,140.002533 
	C116.384911,144.043289 116.958237,147.343155 116.960793,150.643463 
	C117.013016,218.076813 117.030739,285.510254 116.955734,352.943542 
	C116.947624,360.238159 116.327065,367.532135 115.990585,374.826385 
	C109.579132,379.218842 103.167686,383.611328 96.398666,388.058960 
z"/>
<path fill="#BC3BED" opacity="1.000000" stroke="none" 
	d="
M116.331833,374.806763 
	C116.327065,367.532135 116.947624,360.238159 116.955734,352.943542 
	C117.030739,285.510254 117.013016,218.076813 116.960793,150.643463 
	C116.958237,147.343155 116.384911,144.043289 116.058182,140.315750 
	C122.454445,144.264114 128.869904,148.639938 135.804260,153.256561 
	C136.550781,153.693436 136.803375,153.849014 137.080917,153.964050 
	C137.080917,153.964050 137.015121,153.990753 137.048584,154.384766 
	C137.388031,158.081726 137.957901,161.384445 137.960846,164.687637 
	C138.014496,224.846069 138.022308,285.004578 137.958878,345.162994 
	C137.953629,350.132477 137.367218,355.101410 137.050842,360.070587 
	C137.050858,360.070587 137.016800,360.009125 136.849060,360.123779 
	C136.424042,360.397278 136.196243,360.590790 135.997925,360.818970 
	C129.556305,365.475037 123.114693,370.131073 116.331833,374.806763 
z"/>
<path fill="#B641ED" opacity="1.000000" stroke="none" 
	d="
M137.374390,359.935120 
	C137.367218,355.101410 137.953629,350.132477 137.958878,345.162994 
	C138.022308,285.004578 138.014496,224.846069 137.960846,164.687637 
	C137.957901,161.384445 137.388031,158.081726 137.066376,154.354050 
	C145.146225,159.573593 153.241714,165.217880 161.658325,171.481750 
	C161.971909,229.004868 161.964386,285.908417 161.956879,342.811981 
	C153.870560,348.474548 145.784241,354.137085 137.374390,359.935120 
z"/>
<path fill="#7682EB" opacity="1.000000" stroke="none" 
	d="
M314.114258,133.956985 
	C319.340088,137.082565 324.565918,140.208145 329.453064,143.782974 
	C328.409637,146.441025 327.092346,148.648895 327.088989,150.858765 
	C326.981049,221.625732 327.000000,292.392914 327.001709,363.160034 
	C327.001740,364.158905 326.688843,365.339691 327.109955,366.117126 
	C327.884705,367.547363 329.097504,368.740295 330.127716,370.032104 
	C325.026947,373.685425 319.926178,377.338745 314.147400,380.787445 
	C312.979584,378.230469 312.066071,375.878754 312.062317,373.525604 
	C311.980682,321.962280 312.000000,270.398834 312.000000,218.835388 
	C312.000031,192.554672 311.953888,166.273697 312.091492,139.993698 
	C312.102020,137.977997 313.409576,135.969070 314.114258,133.956985 
z"/>
<path fill="#6F89EB" opacity="1.000000" stroke="none" 
	d="
M330.446533,369.888000 
	C329.097504,368.740295 327.884705,367.547363 327.109955,366.117126 
	C326.688843,365.339691 327.001740,364.158905 327.001709,363.160034 
	C327.000000,292.392914 326.981049,221.625732 327.088989,150.858765 
	C327.092346,148.648895 328.409637,146.441025 329.474426,144.130035 
	C335.151367,147.463501 340.468231,150.899139 345.447998,154.784149 
	C344.407318,157.442688 343.094910,159.650360 343.089600,161.861191 
	C342.972473,210.642395 342.999939,259.423920 343.000061,308.205414 
	C343.000122,323.189484 342.992371,338.173553 343.009644,353.157623 
	C343.012482,355.636047 342.644165,358.370728 346.125793,359.029694 
	C341.005646,362.601074 335.885498,366.172455 330.446533,369.888000 
z"/>
<path fill="#8176EB" opacity="1.000000" stroke="none" 
	d="
M286.950623,267.883728 
	C288.239960,260.160095 289.272552,252.446915 285.997314,244.038177 
	C285.985962,211.540497 285.992798,179.912918 286.000092,148.285324 
	C286.002045,139.795807 285.909607,131.304581 286.061676,122.817749 
	C286.113190,119.943748 285.829407,116.518089 290.071289,115.920563 
	C290.071289,115.920563 290.031097,115.977654 290.176758,116.146744 
	C290.585876,116.525383 290.849304,116.734940 291.112732,116.944496 
	C294.351898,119.070183 297.591064,121.195869 300.649750,123.868874 
	C299.980255,126.105690 299.064789,127.794846 299.063416,129.484741 
	C298.993500,214.426590 298.987885,299.368500 299.089966,384.310272 
	C299.092255,386.220947 300.414398,388.130066 301.120911,390.039886 
	C298.000031,392.279510 294.879150,394.519135 291.097321,396.931030 
	C285.585876,397.682770 287.068176,393.942230 287.063141,391.731476 
	C286.975861,353.374420 287.018433,315.017029 286.953156,276.659882 
	C286.949341,274.417664 286.270386,272.176605 285.905579,269.935028 
	C285.905579,269.935028 286.008545,269.458130 286.248199,269.064789 
	C286.684875,268.433990 286.839142,268.171417 286.950623,267.883728 
z"/>
<path fill="#7C7CEB" opacity="1.000000" stroke="none" 
	d="
M301.475586,390.016174 
	C300.414398,388.130066 299.092255,386.220947 299.089966,384.310272 
	C298.987885,299.368500 298.993500,214.426590 299.063416,129.484741 
	C299.064789,127.794846 299.980255,126.105690 300.793396,124.186646 
	C305.413727,127.052544 309.709930,130.147980 314.060181,133.600204 
	C313.409576,135.969070 312.102020,137.977997 312.091492,139.993698 
	C311.953888,166.273697 312.000031,192.554672 312.000000,218.835388 
	C312.000000,270.398834 311.980682,321.962280 312.062317,373.525604 
	C312.066071,375.878754 312.979584,378.230469 313.793396,380.812469 
	C310.021667,384.025543 305.925964,387.008972 301.475586,390.016174 
z"/>
<path fill="#6791EB" opacity="1.000000" stroke="none" 
	d="
M346.444458,358.887512 
	C342.644165,358.370728 343.012482,355.636047 343.009644,353.157623 
	C342.992371,338.173553 343.000122,323.189484 343.000061,308.205414 
	C342.999939,259.423920 342.972473,210.642395 343.089600,161.861191 
	C343.094910,159.650360 344.407318,157.442688 345.470734,155.131500 
	C351.147003,158.463333 356.463470,161.897186 361.465393,165.810623 
	C360.434021,168.882446 359.103455,171.472214 359.093048,174.067261 
	C358.954193,208.704803 358.999939,243.343079 359.000061,277.981171 
	C359.000153,298.963867 358.901398,319.947693 359.138367,340.927704 
	C359.165222,343.306091 361.082275,345.663147 362.122833,348.030090 
	C357.002899,351.601807 351.882996,355.173553 346.444458,358.887512 
z"/>
<path fill="#AF48ED" opacity="1.000000" stroke="none" 
	d="
M162.304840,342.792816 
	C161.964386,285.908417 161.971909,229.004868 161.968063,171.644653 
	C168.418518,175.746307 174.880325,180.304596 181.661713,185.476532 
	C181.974365,233.668350 181.967453,281.246521 181.960541,328.824707 
	C175.524628,333.474365 169.088715,338.123993 162.304840,342.792816 
z"/>
<path fill="#5F99EB" opacity="1.000000" stroke="none" 
	d="
M362.439728,347.893921 
	C361.082275,345.663147 359.165222,343.306091 359.138367,340.927704 
	C358.901398,319.947693 359.000153,298.963867 359.000061,277.981171 
	C358.999939,243.343079 358.954193,208.704803 359.093048,174.067261 
	C359.103455,171.472214 360.434021,168.882446 361.489624,166.158936 
	C367.147217,169.460617 372.466064,172.893555 377.449066,176.778915 
	C376.408813,179.435501 375.099915,181.637177 375.090881,183.844177 
	C374.958649,216.080673 374.999969,248.317871 375.000061,280.554901 
	C375.000092,297.338104 374.904297,314.122559 375.125580,330.902832 
	C375.152435,332.938904 376.888641,334.952454 377.832642,336.976410 
	C372.807312,340.570190 367.781952,344.164001 362.439728,347.893921 
z"/>
<path fill="#57A1EB" opacity="1.000000" stroke="none" 
	d="
M378.008698,336.661285 
	C376.888641,334.952454 375.152435,332.938904 375.125580,330.902832 
	C374.904297,314.122559 375.000092,297.338104 375.000061,280.554901 
	C374.999969,248.317871 374.958649,216.080673 375.090881,183.844177 
	C375.099915,181.637177 376.408813,179.435501 377.472900,177.127625 
	C382.484314,180.109985 387.136017,183.196060 391.669678,186.897003 
	C391.035339,189.196274 390.071442,190.879807 390.068176,192.565201 
	C389.984833,235.451385 389.974945,278.337830 390.088959,321.223846 
	C390.094177,323.180450 391.373871,325.133636 392.059967,327.088409 
	C387.434906,330.174347 382.809814,333.260254 378.008698,336.661285 
z"/>
<path fill="#A94EED" opacity="1.000000" stroke="none" 
	d="
M182.308594,328.808197 
	C181.967453,281.246521 181.974365,233.668350 181.970856,185.632721 
	C187.097351,188.743912 192.234283,192.312546 197.842529,196.188965 
	C198.540482,196.691879 198.792252,196.845871 199.069168,196.958710 
	C199.069168,196.958710 198.997055,196.983826 199.013443,197.435242 
	C199.041336,237.609863 199.052841,277.333038 199.064331,317.056244 
	C199.064331,317.056244 198.997223,317.016296 198.833786,317.128754 
	C198.413330,317.397552 198.187729,317.590607 197.993515,317.820374 
	C192.881226,321.477478 187.768936,325.134583 182.308594,328.808197 
z"/>
<path fill="#9364EC" opacity="1.000000" stroke="none" 
	d="
M258.901398,220.082428 
	C253.640579,216.577896 248.280197,213.208862 243.192261,209.469116 
	C241.990799,208.585999 241.095581,206.458115 241.089600,204.898865 
	C240.968063,173.251282 240.953522,141.602982 241.032639,109.955124 
	C241.048035,103.794586 247.578568,97.263779 253.670135,97.032219 
	C256.652161,96.918861 259.647766,97.161591 262.464050,97.628891 
	C258.008759,98.223312 259.039520,101.501892 259.034454,103.943291 
	C258.954163,142.656265 258.934753,181.369354 258.901398,220.082428 
z"/>
<path fill="#4EAAEA" opacity="1.000000" stroke="none" 
	d="
M392.295349,327.036255 
	C391.373871,325.133636 390.094177,323.180450 390.088959,321.223846 
	C389.974945,278.337830 389.984833,235.451385 390.068176,192.565201 
	C390.071442,190.879807 391.035339,189.196274 391.807587,187.213593 
	C392.063538,186.915314 392.536316,187.016388 392.885590,187.251465 
	C393.410431,187.685776 393.609039,187.858475 393.830750,188.004623 
	C398.481628,191.111221 403.132538,194.217819 407.447937,197.776245 
	C406.410492,199.770355 405.100586,201.310699 405.095703,202.855209 
	C404.980957,238.956604 404.966858,275.058624 405.139801,311.159546 
	C405.147614,312.789154 407.084045,314.409515 408.122192,316.034210 
	C403.472260,319.143097 398.822296,322.251984 393.842773,325.799988 
	C393.311066,326.411530 393.135620,326.607819 392.986877,326.828003 
	C392.986877,326.828003 392.530731,326.984100 392.295349,327.036255 
z"/>
<path fill="#8B6DEC" opacity="1.000000" stroke="none" 
	d="
M258.922577,220.071487 
	C258.934753,181.369354 258.954163,142.656265 259.034454,103.943291 
	C259.039520,101.501892 258.008759,98.223312 262.704163,97.990723 
	C267.679657,100.755623 272.241821,103.544434 276.564514,106.704300 
	C275.550110,109.172592 274.108337,111.267120 274.099792,113.367493 
	C273.959442,147.743561 274.034424,182.120453 273.957855,216.496933 
	C273.947937,220.950485 273.365601,225.402740 273.048370,229.855606 
	C269.108246,227.152130 265.168152,224.448654 260.891479,221.210083 
	C260.008820,220.473328 259.462677,220.271683 258.916534,220.070038 
	C258.916534,220.070038 258.943756,220.060547 258.922577,220.071487 
z"/>
<path fill="#A354EC" opacity="1.000000" stroke="none" 
	d="
M199.386658,316.923218 
	C199.052841,277.333038 199.041336,237.609863 199.047043,197.415192 
	C203.833527,200.256195 208.602783,203.568710 213.837952,207.190765 
	C214.524033,207.693344 214.770279,207.843643 215.042603,207.951218 
	C215.042603,207.951218 215.004272,207.997559 215.159515,208.175690 
	C215.526489,208.604202 215.775909,208.808655 216.062973,208.967178 
	C216.062973,208.967178 216.008728,208.963303 215.940216,209.367035 
	C215.581223,212.224182 215.043854,214.677032 215.038239,217.131088 
	C214.977448,243.659729 214.968781,270.188629 215.046951,296.717163 
	C215.055145,299.495605 215.711166,302.272125 216.066620,305.049530 
	C216.066620,305.049530 216.006195,305.036469 215.833710,305.170410 
	C215.407272,305.512207 215.200150,305.759308 215.039825,306.045685 
	C215.039825,306.045685 215.003052,306.002441 214.827148,306.122314 
	C214.399368,306.394867 214.180862,306.585785 213.995758,306.814941 
	C209.233505,310.140015 204.471252,313.465118 199.386658,316.923218 
z"/>
<path fill="#8B6DEC" opacity="1.000000" stroke="none" 
	d="
M280.068573,405.074951 
	C276.299622,407.634918 272.530670,410.194916 268.230774,413.035522 
	C267.474121,413.570221 267.248413,413.824249 267.022736,414.078308 
	C267.022736,414.078308 267.018616,414.006989 266.643463,413.988159 
	C262.698669,413.496246 263.010101,410.763153 263.010345,408.278351 
	C263.014496,369.240417 263.034271,330.202484 263.050476,291.164551 
	C267.125122,288.180634 271.199738,285.196686 275.616302,282.547485 
	C275.972137,293.377563 275.995972,303.872955 275.998108,314.368317 
	C276.003845,342.689514 276.007568,371.010742 275.989594,399.331940 
	C275.987732,402.265503 275.711823,405.286194 280.068573,405.074951 
z"/>
<path fill="#9167EC" opacity="1.000000" stroke="none" 
	d="
M262.700378,291.179138 
	C263.034271,330.202484 263.014496,369.240417 263.010345,408.278351 
	C263.010101,410.763153 262.698669,413.496246 266.664246,414.017212 
	C262.094238,418.213165 256.468536,417.468262 250.400482,415.590210 
	C250.013519,378.690186 249.990479,342.460236 250.040146,306.230408 
	C250.043045,304.112762 250.633972,301.995941 250.951248,299.878723 
	C254.750931,296.983734 258.550598,294.088745 262.700378,291.179138 
z"/>
<path fill="#8671EC" opacity="1.000000" stroke="none" 
	d="
M273.258301,229.924408 
	C273.365601,225.402740 273.947937,220.950485 273.957855,216.496933 
	C274.034424,182.120453 273.959442,147.743561 274.099792,113.367493 
	C274.108337,111.267120 275.550110,109.172592 276.726379,107.019012 
	C281.340820,109.739388 285.553894,112.516098 289.919128,115.606689 
	C285.829407,116.518089 286.113190,119.943748 286.061676,122.817749 
	C285.909607,131.304581 286.002045,139.795807 286.000092,148.285324 
	C285.992798,179.912918 285.985962,211.540497 285.964783,243.644043 
	C283.369781,240.653992 280.789001,237.187973 277.877502,233.197525 
	C277.006836,232.471008 276.466919,232.268921 275.926971,232.066849 
	C275.926971,232.066849 275.977692,232.018921 275.829773,231.848495 
	C275.426056,231.459686 275.170319,231.241302 274.914581,231.022919 
	C274.914581,231.022903 274.983368,231.017273 274.831848,230.851654 
	C274.460358,230.431732 274.201233,230.226959 273.903015,230.071671 
	C273.903015,230.071671 273.468231,229.993210 273.258301,229.924408 
z"/>
<path fill="#48B0EA" opacity="1.000000" stroke="none" 
	d="
M408.442078,315.891083 
	C407.084045,314.409515 405.147614,312.789154 405.139801,311.159546 
	C404.966858,275.058624 404.980957,238.956604 405.095703,202.855209 
	C405.100586,201.310699 406.410492,199.770355 407.472076,198.123291 
	C412.147675,200.785492 416.463654,203.552490 420.422852,206.720642 
	C419.379272,208.450455 418.097839,209.776917 418.092957,211.108063 
	C417.980591,241.712677 417.966827,272.317993 418.139801,302.922089 
	C418.147583,304.299011 420.082275,305.665070 421.119476,307.036163 
	C417.000305,309.940094 412.881104,312.844025 408.442078,315.891083 
z"/>
<path fill="#9D5AEC" opacity="1.000000" stroke="none" 
	d="
M216.424927,305.022827 
	C215.711166,302.272125 215.055145,299.495605 215.046951,296.717163 
	C214.968781,270.188629 214.977448,243.659729 215.038239,217.131088 
	C215.043854,214.677032 215.581223,212.224182 215.969208,209.360672 
	C221.155991,212.584229 226.245255,216.217880 231.660461,220.470276 
	C231.981323,245.334702 231.976227,269.580414 231.971115,293.826141 
	C226.908493,297.549469 221.845871,301.272797 216.424927,305.022827 
z"/>
<path fill="#8671EC" opacity="1.000000" stroke="none" 
	d="
M280.052917,405.045776 
	C275.711823,405.286194 275.987732,402.265503 275.989594,399.331940 
	C276.007568,371.010742 276.003845,342.689514 275.998108,314.368317 
	C275.995972,303.872955 275.972137,293.377563 275.932251,282.411499 
	C275.906311,281.940826 275.945618,281.974396 276.229614,281.910187 
	C276.988098,281.530365 277.462585,281.214752 277.937073,280.899139 
	C280.384094,277.351654 282.831085,273.804169 285.591858,270.095856 
	C286.270386,272.176605 286.949341,274.417664 286.953156,276.659882 
	C287.018433,315.017029 286.975861,353.374420 287.063141,391.731476 
	C287.068176,393.942230 285.585876,397.682770 290.779724,397.072266 
	C288.001801,399.279694 284.880554,401.518219 281.229553,404.037811 
	C280.474762,404.572968 280.249756,404.827087 280.024780,405.081177 
	C280.024750,405.081177 280.037231,405.016602 280.052917,405.045776 
z"/>
<path fill="#41B7EA" opacity="1.000000" stroke="none" 
	d="
M421.439819,306.893311 
	C420.082275,305.665070 418.147583,304.299011 418.139801,302.922089 
	C417.966827,272.317993 417.980591,241.712677 418.092957,211.108063 
	C418.097839,209.776917 419.379272,208.450455 420.448608,207.067261 
	C425.147095,209.779709 429.463074,212.546722 433.446350,215.767975 
	C432.411316,217.763733 431.105286,219.302048 431.097015,220.847260 
	C430.968323,244.951889 430.947052,269.057922 431.141327,293.161682 
	C431.154510,294.795349 433.080780,296.413635 434.117279,298.039093 
	C429.998230,300.942902 425.879181,303.846680 421.439819,306.893311 
z"/>
<path fill="#9760EC" opacity="1.000000" stroke="none" 
	d="
M232.328674,293.896179 
	C231.976227,269.580414 231.981323,245.334702 231.978729,220.631424 
	C236.248917,222.888367 240.526794,225.602875 245.137421,228.845856 
	C245.997299,229.559860 246.524445,229.745392 247.051575,229.930923 
	C247.051575,229.930923 247.048248,229.983551 247.174774,230.164139 
	C247.509827,230.600021 247.759186,230.805847 248.049393,230.962189 
	C248.049393,230.962189 248.048615,230.992920 248.039917,231.449203 
	C248.044571,248.948532 248.057907,265.991577 248.071259,283.034637 
	C248.071259,283.034637 248.049271,283.008057 247.847076,283.158600 
	C247.391006,283.519531 247.186966,283.770447 247.032745,284.061859 
	C247.032745,284.061859 247.047226,284.016296 246.765991,284.078491 
	C246.023849,284.442596 245.562927,284.744507 245.102020,285.046417 
	C240.963425,288.019684 236.824829,290.992950 232.328674,293.896179 
z"/>
<path fill="#3ABEEA" opacity="1.000000" stroke="none" 
	d="
M434.437286,297.899231 
	C433.080780,296.413635 431.154510,294.795349 431.141327,293.161682 
	C430.947052,269.057922 430.968323,244.951889 431.097015,220.847260 
	C431.105286,219.302048 432.411316,217.763733 433.472961,216.114288 
	C438.164246,218.776123 442.496246,221.545898 446.591858,224.737244 
	C445.574585,226.639069 444.127045,228.113571 444.114197,229.600479 
	C443.956909,247.796982 443.931091,265.996216 444.143585,284.191559 
	C444.162598,285.820312 446.078796,287.426910 447.113922,289.043762 
	C442.995026,291.948975 438.876160,294.854187 434.437286,297.899231 
z"/>
<path fill="#9760EC" opacity="1.000000" stroke="none" 
	d="
M250.593613,299.934692 
	C250.633972,301.995941 250.043045,304.112762 250.040146,306.230408 
	C249.990479,342.460236 250.013519,378.690186 250.032898,415.378235 
	C244.050247,413.253265 240.961685,408.843140 240.974808,402.170044 
	C241.032944,372.574646 241.149323,342.977631 240.868439,313.384766 
	C240.815430,307.800232 241.942261,303.872437 247.405563,301.824707 
	C248.433746,301.439331 249.296753,300.613312 250.593613,299.934692 
z"/>
<path fill="#32C6EA" opacity="1.000000" stroke="none" 
	d="
M447.469910,289.016785 
	C446.078796,287.426910 444.162598,285.820312 444.143585,284.191559 
	C443.931091,265.996216 443.956909,247.796982 444.114197,229.600479 
	C444.127045,228.113571 445.574585,226.639069 446.734741,225.057510 
	C452.008362,228.077286 456.902771,231.198349 461.630402,234.867279 
	C460.979736,236.767563 460.089020,238.116028 460.075867,239.473007 
	C459.963409,251.089600 459.930237,262.708923 460.102203,274.324036 
	C460.125641,275.906952 461.411072,277.471191 462.112152,279.044098 
	C457.350067,282.359314 452.588013,285.674561 447.469910,289.016785 
z"/>
<path fill="#28D0EA" opacity="1.000000" stroke="none" 
	d="
M462.428650,278.907410 
	C461.411072,277.471191 460.125641,275.906952 460.102203,274.324036 
	C459.930237,262.708923 459.963409,251.089600 460.075867,239.473007 
	C460.089020,238.116028 460.979736,236.767563 461.785828,235.183563 
	C466.146210,237.648071 470.198395,240.323517 474.219757,243.044449 
	C483.340668,249.215881 483.906281,263.567261 475.165070,270.255310 
	C471.183929,273.301361 466.894684,275.944733 462.428650,278.907410 
z"/>
<path fill="#9167EC" opacity="1.000000" stroke="none" 
	d="
M248.394623,282.906982 
	C248.057907,265.991577 248.044571,248.948532 248.051224,231.435425 
	C252.816864,234.256851 257.562500,237.548325 262.637360,241.466492 
	C262.955902,252.335907 262.945251,262.578613 262.934601,272.821350 
	C262.934601,272.821350 262.509460,272.980560 262.082031,273.159912 
	C261.397766,273.548798 261.187347,273.797638 261.023376,274.085785 
	C261.023376,274.085785 261.014069,274.020447 260.849487,274.134888 
	C260.431915,274.410889 260.207703,274.605560 260.012268,274.833405 
	C256.247528,277.482056 252.482773,280.130707 248.394623,282.906982 
z"/>
<path fill="#8B6DEC" opacity="1.000000" stroke="none" 
	d="
M263.280701,272.816040 
	C262.945251,262.578613 262.955902,252.335907 262.950470,241.636078 
	C265.275787,243.136871 268.405640,244.645630 269.821411,247.130844 
	C275.779785,257.590149 274.404449,263.583069 265.052063,271.427429 
	C264.546143,271.851776 264.100494,272.347992 263.280701,272.816040 
z"/>
<path fill="#9167EC" opacity="1.000000" stroke="none" 
	d="
M246.951202,229.639206 
	C246.524445,229.745392 245.997299,229.559860 245.285583,229.163391 
	C245.684296,229.084122 246.267563,229.215805 246.951202,229.639206 
z"/>
<path fill="#8B6DEC" opacity="1.000000" stroke="none" 
	d="
M277.630951,280.945190 
	C277.462585,281.214752 276.988098,281.530365 276.223877,281.889465 
	C276.397705,281.619049 276.861267,281.305145 277.630951,280.945190 
z"/>
<path fill="#9364EC" opacity="1.000000" stroke="none" 
	d="
M259.029175,220.366608 
	C259.462677,220.271683 260.008820,220.473328 260.750488,220.896194 
	C260.344574,220.966003 259.743195,220.814590 259.029175,220.366608 
z"/>
<path fill="#8B6DEC" opacity="1.000000" stroke="none" 
	d="
M276.047180,232.354309 
	C276.466919,232.268921 277.006836,232.471008 277.742523,232.889023 
	C277.347961,232.950562 276.757660,232.796158 276.047180,232.354309 
z"/>
<path fill="#9167EC" opacity="1.000000" stroke="none" 
	d="
M245.406525,285.024048 
	C245.562927,284.744507 246.023849,284.442596 246.768265,284.104645 
	C246.604858,284.379608 246.157959,284.690643 245.406525,285.024048 
z"/>
<path fill="#8671EC" opacity="1.000000" stroke="none" 
	d="
M291.020203,116.690231 
	C290.849304,116.734940 290.585876,116.525383 290.168457,116.112831 
	C290.318878,116.085220 290.623260,116.260597 291.020203,116.690231 
z"/>
<path fill="#9D5AEC" opacity="1.000000" stroke="none" 
	d="
M215.292267,305.975555 
	C215.200150,305.759308 215.407272,305.512207 215.862610,305.167755 
	C215.890900,305.322601 215.717819,305.614014 215.292267,305.975555 
z"/>
<path fill="#57A1EB" opacity="1.000000" stroke="none" 
	d="
M393.250183,326.865540 
	C393.135620,326.607819 393.311066,326.411530 393.671936,326.120850 
	C393.724945,326.302734 393.619202,326.602905 393.250183,326.865540 
z"/>
<path fill="#9D5AEC" opacity="1.000000" stroke="none" 
	d="
M214.252777,306.854004 
	C214.180862,306.585785 214.399368,306.394867 214.847198,306.145020 
	C214.865356,306.329620 214.687576,306.611328 214.252777,306.854004 
z"/>
<path fill="#A354EC" opacity="1.000000" stroke="none" 
	d="
M198.255249,317.859070 
	C198.187729,317.590607 198.413330,317.397552 198.870209,317.140564 
	C198.885696,317.325867 198.701324,317.611816 198.255249,317.859070 
z"/>
<path fill="#8671EC" opacity="1.000000" stroke="none" 
	d="
M286.700989,267.976379 
	C286.839142,268.171417 286.684875,268.433990 286.325287,268.833374 
	C286.258911,268.686523 286.355103,268.377777 286.700989,267.976379 
z"/>
<path fill="#B641ED" opacity="1.000000" stroke="none" 
	d="
M136.259918,360.854645 
	C136.196243,360.590790 136.424042,360.397278 136.881897,360.136292 
	C136.895599,360.319519 136.708740,360.604919 136.259918,360.854645 
z"/>
<path fill="#8B6DEC" opacity="1.000000" stroke="none" 
	d="
M280.286102,405.004395 
	C280.249756,404.827087 280.474762,404.572968 280.912048,404.177612 
	C280.932007,404.333466 280.739716,404.630554 280.286102,405.004395 
z"/>
<path fill="#9167EC" opacity="1.000000" stroke="none" 
	d="
M267.284607,414.002258 
	C267.248413,413.824249 267.474121,413.570221 267.912842,413.175232 
	C267.932709,413.331604 267.739594,413.628906 267.284607,414.002258 
z"/>
<path fill="#9167EC" opacity="1.000000" stroke="none" 
	d="
M247.286667,283.990479 
	C247.186966,283.770447 247.391006,283.519531 247.847351,283.172974 
	C247.880081,283.330872 247.710327,283.625000 247.286667,283.990479 
z"/>
<path fill="#B641ED" opacity="1.000000" stroke="none" 
	d="
M136.998444,153.714981 
	C136.803375,153.849014 136.550781,153.693436 136.165512,153.339264 
	C136.310562,153.276093 136.613281,153.371002 136.998444,153.714981 
z"/>
<path fill="#8B6DEC" opacity="1.000000" stroke="none" 
	d="
M260.273865,274.865112 
	C260.207703,274.605560 260.431915,274.410889 260.881592,274.142456 
	C260.897339,274.322662 260.716370,274.609741 260.273865,274.865112 
z"/>
<path fill="#8B6DEC" opacity="1.000000" stroke="none" 
	d="
M261.273315,274.009094 
	C261.187347,273.797638 261.397766,273.548798 261.860718,273.210388 
	C261.885651,273.365143 261.704437,273.648773 261.273315,274.009094 
z"/>
<path fill="#A354EC" opacity="1.000000" stroke="none" 
	d="
M198.991425,196.707642 
	C198.792252,196.845871 198.540482,196.691879 198.158356,196.338242 
	C198.306442,196.272003 198.610062,196.364288 198.991425,196.707642 
z"/>
<path fill="#8B6DEC" opacity="1.000000" stroke="none" 
	d="
M274.991394,231.285080 
	C275.170319,231.241302 275.426056,231.459686 275.830444,231.883392 
	C275.675415,231.908218 275.371796,231.727722 274.991394,231.285080 
z"/>
<path fill="#8B6DEC" opacity="1.000000" stroke="none" 
	d="
M273.991516,230.322540 
	C274.201233,230.226959 274.460358,230.431732 274.830872,230.886139 
	C274.680969,230.915298 274.380493,230.744339 273.991516,230.322540 
z"/>
<path fill="#9167EC" opacity="1.000000" stroke="none" 
	d="
M247.981384,230.707443 
	C247.759186,230.805847 247.509827,230.600021 247.166473,230.141281 
	C247.325546,230.109467 247.619476,230.281082 247.981384,230.707443 
z"/>
<path fill="#57A1EB" opacity="1.000000" stroke="none" 
	d="
M393.864380,187.740936 
	C393.609039,187.858475 393.410431,187.685776 393.114502,187.329254 
	C393.295410,187.273743 393.596710,187.375488 393.864380,187.740936 
z"/>
<path fill="#9D5AEC" opacity="1.000000" stroke="none" 
	d="
M215.988251,208.716034 
	C215.775909,208.808655 215.526489,208.604202 215.176697,208.153717 
	C215.330261,208.124069 215.621902,208.294479 215.988251,208.716034 
z"/>
<path fill="#9D5AEC" opacity="1.000000" stroke="none" 
	d="
M214.971725,207.702789 
	C214.770279,207.843643 214.524033,207.693344 214.154358,207.342804 
	C214.303528,207.274994 214.602188,207.364670 214.971725,207.702789 
z"/>
</svg>