<svg version="1.1" id="Layer_1" xmlns="http://www.w3.org/2000/svg" xmlns:xlink="http://www.w3.org/1999/xlink" x="0px" y="0px"
	 width="100%" viewBox="0 0 512 512" enable-background="new 0 0 512 512" xml:space="preserve">
<path fill="#EE0CFD" opacity="1.000000" stroke="none" 
	d="
M39.434982,203.235535 
	C40.662788,194.233749 43.035484,185.737625 47.004829,177.337234 
	C49.810760,173.547913 53.102295,170.720047 56.156338,167.665222 
	C92.978546,130.833649 129.804932,94.006264 166.638229,57.185776 
	C169.572128,54.252884 172.241196,51.050339 175.717926,48.169815 
	C175.937042,47.894199 175.959808,47.965801 175.923325,47.956841 
	C176.071167,47.815998 176.255493,47.684109 176.716370,47.354435 
	C184.933441,44.101940 193.040771,41.560230 201.613281,39.222008 
	C203.799362,41.164799 202.623260,42.876850 201.414856,44.517670 
	C200.226517,46.131233 198.725800,47.473381 197.312637,48.886700 
	C147.475845,98.728752 97.646751,148.578522 47.761585,198.372101 
	C45.512104,200.617432 43.725819,203.903198 39.434982,203.235535 
z"/>
<path fill="#E812FC" opacity="1.000000" stroke="none" 
	d="
M38.992386,203.352798 
	C41.377666,202.716553 42.532757,200.943451 43.920792,199.556107 
	C95.426193,148.076309 146.919373,96.584282 198.396423,45.076153 
	C199.891403,43.580284 201.867783,42.351398 201.979736,39.519012 
	C207.055420,38.118877 212.116272,37.070282 217.587509,36.093773 
	C220.374222,39.522850 217.575943,41.442753 215.743912,43.322544 
	C206.595459,52.709435 197.259293,61.912060 187.989441,71.179771 
	C179.666275,79.501045 171.404129,87.884338 162.709213,96.311798 
	C162.449142,96.843697 162.357437,97.063759 162.094238,97.600563 
	C161.648209,98.312080 161.346344,98.684868 160.775024,99.300629 
	C150.241928,106.895813 139.736359,113.948349 130.544357,122.698631 
	C119.654922,133.064774 110.168846,144.599655 101.860832,157.122665 
	C100.120285,159.746277 98.654739,162.585632 95.991722,164.961227 
	C94.074875,165.698151 92.770523,166.696365 91.632111,167.939758 
	C76.381767,184.596420 59.877350,200.015060 44.035049,216.087479 
	C41.794712,218.360367 39.708111,221.355927 35.435875,220.231247 
	C36.116772,214.507950 36.697784,208.936432 38.992386,203.352798 
z"/>
<path fill="#F308FE" opacity="1.000000" stroke="none" 
	d="
M175.557861,47.948391 
	C175.335114,51.000729 173.287750,53.197258 171.171265,55.314728 
	C132.209320,94.294922 93.233170,133.260910 54.272598,172.242462 
	C52.369766,174.146317 50.252235,175.706696 47.497746,176.930557 
	C49.803673,168.479980 53.708080,160.518478 58.008209,152.331635 
	C61.734665,150.177078 63.286243,146.431854 65.980164,143.752808 
	C91.670403,118.204468 117.277664,92.572548 142.856949,66.912987 
	C145.568817,64.192604 148.747864,62.060566 151.737152,59.158340 
	C159.272217,54.347565 167.119904,50.949902 175.557861,47.948391 
z"/>
<path fill="#06D6DF" opacity="1.000000" stroke="none" 
	d="
M459.862610,354.783020 
	C454.452026,368.774689 446.247314,380.988831 437.591644,392.969238 
	C428.934631,404.951447 418.716827,415.532837 407.890686,425.435089 
	C394.600677,437.590912 379.978241,448.024353 363.786560,456.168640 
	C360.774323,457.683807 357.903656,459.570587 354.441040,461.041046 
	C352.509918,459.532104 353.453949,458.010345 354.205475,456.549377 
	C354.970734,455.061646 356.072021,453.792328 357.247101,452.612213 
	C388.587036,421.138519 419.989777,389.727509 451.492554,358.416931 
	C453.655792,356.266876 455.862671,353.644440 459.862610,354.783020 
z"/>
<path fill="#14C9E1" opacity="1.000000" stroke="none" 
	d="
M311.208374,476.610901 
	C307.596191,477.584290 304.200623,478.279907 300.403290,478.904419 
	C297.636444,475.480713 300.413177,473.551514 302.245789,471.655670 
	C309.750061,463.892456 317.403931,456.272461 325.112946,448.712524 
	C335.189514,438.830750 344.736633,428.411865 355.285797,419.007111 
	C356.761444,417.691559 357.736816,415.902771 358.787079,413.795746 
	C363.223694,408.751587 368.788696,405.629425 373.678772,401.669769 
	C385.361115,392.210205 395.667908,381.484711 404.737427,369.521179 
	C407.234070,366.227875 409.352997,362.595398 413.038574,359.854187 
	C415.050476,359.279846 416.306305,358.214844 417.449554,356.975189 
	C434.247131,338.761139 452.309113,321.796417 469.699310,304.167816 
	C471.805206,302.033020 473.761169,298.993256 477.892334,300.759216 
	C477.988281,304.230347 477.020264,307.231598 475.913696,310.609924 
	C473.659912,314.379730 470.939941,317.277527 468.104248,320.110809 
	C418.035645,370.136536 367.983124,420.178345 317.983704,470.273193 
	C315.870300,472.390594 313.243835,473.920929 311.208374,476.610901 
z"/>
<path fill="#0DCFE0" opacity="1.000000" stroke="none" 
	d="
M339.263306,466.841339 
	C334.594208,470.747406 328.649292,470.497528 323.385437,473.085266 
	C321.373016,471.491943 322.003906,469.826843 323.047760,468.191162 
	C323.857910,466.921783 324.933441,465.869995 325.991089,464.811859 
	C372.073334,418.711243 418.150421,372.605469 464.294006,326.566284 
	C466.451782,324.413391 468.488739,321.613068 472.561035,322.767151 
	C471.948303,328.488220 469.247009,333.387787 467.441071,338.861694 
	C426.394135,379.842377 385.588318,420.558167 344.869446,461.360809 
	C343.103821,463.130066 341.159790,464.708771 339.263306,466.841339 
z"/>
<path fill="#11CCE0" opacity="1.000000" stroke="none" 
	d="
M472.913452,322.616516 
	C470.204468,323.413330 468.389038,325.096802 466.600433,326.886047 
	C419.752167,373.752350 372.892181,420.606903 326.039429,467.468689 
	C324.640533,468.867859 322.976501,470.127533 323.013245,472.790894 
	C319.252350,474.384949 315.502472,475.606018 311.372162,476.857910 
	C310.810333,474.616974 312.259033,473.230377 313.692322,471.797455 
	C366.470673,419.032166 419.239410,366.257263 472.030151,313.504395 
	C472.950592,312.584625 474.123627,311.917694 475.505920,311.066589 
	C475.944733,315.011505 474.211670,318.556213 472.913452,322.616516 
z"/>
<path fill="#0AD3DF" opacity="1.000000" stroke="none" 
	d="
M339.431152,467.064117 
	C338.731781,464.628448 340.338257,463.151123 341.885254,461.604645 
	C381.741852,421.761658 421.588959,381.909149 461.445007,342.065582 
	C462.837982,340.673065 464.076904,338.980652 466.745361,339.044250 
	C466.170685,344.739716 462.609711,349.376068 460.439575,354.871155 
	C457.037140,355.665863 454.829437,357.685181 452.714508,359.798859 
	C421.458405,391.036652 390.216370,422.288513 358.962311,453.528381 
	C356.950745,455.539062 355.166992,457.688690 354.113495,460.737915 
	C354.075348,461.087860 354.051666,461.030273 354.081360,461.039581 
	C353.927277,461.179901 353.743439,461.310883 353.285736,461.640961 
	C348.629059,463.600830 344.550049,466.136322 339.431152,467.064117 
z"/>
<path fill="#E118FB" opacity="1.000000" stroke="none" 
	d="
M161.376862,97.311935 
	C161.157104,94.598022 163.149017,93.383614 164.639206,91.889397 
	C181.214020,75.269844 197.827286,58.688656 214.403336,42.070343 
	C215.895676,40.574207 217.870285,39.347286 217.982544,36.517578 
	C225.221146,34.019951 232.771057,34.174164 240.566315,33.094002 
	C242.642715,35.228710 241.335373,36.925964 240.237732,38.564526 
	C239.031281,40.365494 237.398407,41.812969 235.875702,43.343735 
	C224.409241,54.870937 212.520691,65.969940 201.132568,77.577377 
	C200.301437,78.424545 199.625992,79.335388 198.870834,80.675568 
	C197.082214,82.564941 195.043213,83.344818 193.034805,84.112190 
	C184.327332,87.439102 175.982147,91.530441 167.750687,95.878448 
	C165.874344,96.869553 164.035507,98.202950 161.376862,97.311935 
z"/>
<path fill="#F903FF" opacity="1.000000" stroke="none" 
	d="
M151.592392,58.941395 
	C151.884262,61.157974 150.135941,62.346722 148.749832,63.733894 
	C120.416351,92.089020 92.072189,120.433487 63.716446,148.766357 
	C62.330498,150.151184 61.145813,151.907272 58.515068,151.984604 
	C63.702660,141.997482 69.548218,132.177292 76.468697,123.059181 
	C86.728607,109.541214 98.273354,97.238991 111.217033,86.213448 
	C123.583572,75.679512 136.757904,66.406296 151.592392,58.941395 
z"/>
<path fill="#E118FB" opacity="1.000000" stroke="none" 
	d="
M35.090752,220.422028 
	C37.994892,219.569580 39.854233,217.659164 41.749519,215.761536 
	C57.745445,199.745773 73.748253,183.736877 89.774437,167.751419 
	C91.164497,166.364883 92.307396,164.606827 94.769257,164.084198 
	C96.196976,165.214890 95.940994,166.588226 95.313339,167.730560 
	C89.594246,178.139236 85.784126,189.416840 80.285194,200.316620 
	C77.684700,201.668945 76.352036,203.837280 74.613655,205.580246 
	C63.264828,216.959000 51.940678,228.362930 40.495560,239.644730 
	C38.673347,241.440933 36.876625,243.764313 33.425011,242.250168 
	C32.422489,234.828400 34.137367,227.874481 35.090752,220.422028 
z"/>
<path fill="#28B8E3" opacity="1.000000" stroke="none" 
	d="
M480.998718,236.192886 
	C482.052429,244.819626 482.809814,253.483994 481.907745,262.593170 
	C480.280518,265.776825 478.197693,268.103729 475.939850,270.336914 
	C466.134857,280.034882 456.478516,289.883209 446.618500,299.524963 
	C444.458862,301.636780 442.247345,304.505035 438.330078,301.717163 
	C437.159302,298.348633 438.408844,295.498291 438.967010,292.633606 
	C440.225769,286.173920 440.409424,279.537231 442.391052,272.817352 
	C452.390076,262.115143 462.630981,252.171539 472.720215,242.078049 
	C475.047180,239.750183 477.235535,237.148315 480.998718,236.192886 
z"/>
<path fill="#D81FFA" opacity="1.000000" stroke="none" 
	d="
M32.968155,242.379944 
	C35.882282,242.216721 37.286087,240.199295 38.900150,238.588165 
	C50.485615,227.023697 62.046242,215.434326 73.643158,203.881378 
	C75.030891,202.498886 76.183617,200.794098 78.505829,200.063217 
	C80.481056,201.189255 80.346405,202.983215 79.910599,204.512451 
	C77.513039,212.925354 76.126595,221.576218 73.616287,230.350098 
	C62.130314,242.124359 50.777721,253.503845 39.356041,264.813538 
	C37.538357,266.613373 35.925575,269.049866 32.448265,268.227661 
	C32.288662,259.582336 31.100149,251.138321 32.968155,242.379944 
z"/>
<path fill="#CD28F9" opacity="1.000000" stroke="none" 
	d="
M32.091038,268.423889 
	C34.376133,267.719360 35.526970,265.943848 36.916702,264.559998 
	C46.946690,254.572632 56.937176,244.545593 66.964706,234.555740 
	C68.246414,233.278854 69.324249,231.716537 71.506287,231.063232 
	C73.625870,232.193939 73.603905,233.979080 73.492744,235.856049 
	C73.033607,243.608444 72.031158,251.322128 71.731888,259.496368 
	C62.053154,270.983337 51.284649,280.885284 40.888500,291.150391 
	C39.465698,292.555267 37.687984,293.653503 35.189934,292.270264 
	C33.066544,288.699158 33.949120,284.901001 33.194115,281.334930 
	C32.342590,277.312958 33.238472,272.956665 32.091038,268.423889 
z"/>
<path fill="#20BFE2" opacity="1.000000" stroke="none" 
	d="
M283.269653,480.834961 
	C275.399933,482.539673 267.693604,483.160645 259.462891,482.904602 
	C256.792389,479.795593 259.092987,477.829132 260.870117,476.021362 
	C271.550720,465.156830 282.295074,454.354004 293.202454,443.716248 
	C294.274780,442.670502 295.403351,441.723419 296.335114,440.074402 
	C299.421387,437.455414 303.005219,437.007629 306.356445,436.244904 
	C313.644043,434.586182 320.281677,430.734283 328.192078,430.153290 
	C330.798798,432.061310 329.529327,433.829193 328.414551,435.469940 
	C327.200409,437.256866 325.549683,438.684113 324.019989,440.200684 
	C310.482880,453.622009 297.189545,467.288147 283.269653,480.834961 
z"/>
<path fill="#20BFE2" opacity="1.000000" stroke="none" 
	d="
M438.783630,302.117615 
	C441.667297,302.206238 443.051453,300.446167 444.571381,298.926300 
	C455.369965,288.128326 466.160309,277.322052 476.976959,266.542206 
	C478.254059,265.269501 479.327209,263.710114 481.506958,263.066406 
	C482.187592,270.070282 482.279327,277.129578 480.907410,284.566620 
	C478.273590,289.147461 474.773315,292.469604 471.354584,295.872894 
	C460.033752,307.142670 448.816620,318.517029 437.413574,329.703156 
	C435.142090,331.931396 432.917847,334.942902 428.652740,332.876556 
	C427.582825,330.775848 428.013031,328.993927 428.688690,327.310181 
	C431.506805,320.287415 434.077240,313.184387 436.027740,305.865936 
	C436.417267,304.404297 437.090424,303.105072 438.783630,302.117615 
z"/>
<path fill="#D81FFA" opacity="1.000000" stroke="none" 
	d="
M198.257446,80.155334 
	C200.443924,74.578430 204.723099,70.936356 208.817581,67.022835 
	C219.140930,57.155758 229.217300,47.029476 239.327942,36.942207 
	C240.103043,36.168900 240.369934,34.886230 240.935120,33.503227 
	C248.354889,33.118275 255.712570,33.070415 263.533936,33.093842 
	C265.717010,36.428463 263.027802,38.069588 261.309906,39.826763 
	C251.561890,49.797642 241.628403,59.585884 231.758423,69.436150 
	C230.439301,70.752640 229.465500,72.219597 228.140869,73.960037 
	C219.218491,77.225800 210.209656,78.758865 201.392120,81.032722 
	C200.407516,81.286636 199.411575,81.001038 198.257446,80.155334 
z"/>
<path fill="#C233F7" opacity="1.000000" stroke="none" 
	d="
M34.934906,292.475647 
	C37.557777,292.251404 39.082134,290.426605 40.724705,288.781281 
	C48.801781,280.690460 56.879467,272.600220 64.983917,264.536835 
	C66.260124,263.267120 67.332542,261.712646 69.505920,261.063873 
	C72.487144,262.500824 71.910797,265.220215 72.264931,267.565430 
	C73.142708,273.378448 73.903107,279.205292 73.678741,285.509155 
	C68.723129,292.509949 62.308987,297.612366 56.722988,303.507019 
	C53.292965,307.126556 49.754005,310.650421 46.116142,314.064270 
	C44.568649,315.516479 43.032661,317.234497 40.184048,316.266205 
	C37.289062,308.538696 35.679150,300.819183 34.934906,292.475647 
z"/>
<path fill="#33AFE5" opacity="1.000000" stroke="none" 
	d="
M481.207764,235.782745 
	C474.109497,243.402328 466.941406,250.740494 459.569733,257.868073 
	C454.698212,262.578278 450.499054,268.006866 444.493652,271.934692 
	C441.870483,270.714783 441.938324,268.455536 441.911285,266.301117 
	C441.836090,260.306732 441.697998,254.310272 442.138428,247.899109 
	C443.944763,244.414322 446.607117,242.165039 449.026001,239.724426 
	C456.253784,232.431595 463.489349,225.145203 470.825806,217.961990 
	C472.649658,216.176254 474.293213,213.753113 477.805756,214.737411 
	C479.937622,221.652786 480.881500,228.476746 481.207764,235.782745 
z"/>
<path fill="#28B8E3" opacity="1.000000" stroke="none" 
	d="
M296.750000,440.805603 
	C296.717682,443.364349 294.955658,444.518768 293.573975,445.905792 
	C283.140198,456.379944 272.669647,466.817444 262.232178,477.287933 
	C260.850769,478.673676 259.093475,479.853729 259.018555,482.482086 
	C251.596222,483.374512 244.226517,482.951355 236.441437,481.903625 
	C234.281754,478.573578 236.969772,476.935089 238.683762,475.175323 
	C246.436722,467.215118 254.378235,459.439880 262.199738,451.546326 
	C264.517670,449.207001 267.042145,447.022888 268.864899,443.726257 
	C278.166321,441.478699 287.103882,438.893646 296.750000,440.805603 
z"/>
<path fill="#18C6E1" opacity="1.000000" stroke="none" 
	d="
M283.484985,481.065002 
	C282.700378,478.401123 284.592255,476.906464 286.230164,475.268890 
	C299.247925,462.253540 312.272736,449.245209 325.267456,436.206909 
	C326.648590,434.821136 328.399323,433.681274 328.918518,431.225952 
	C328.714844,429.207764 329.932770,428.447083 331.081604,427.868713 
	C339.674469,423.542755 348.159424,419.020569 356.499023,414.223541 
	C357.365479,413.725159 358.363953,413.536224 359.690216,413.961182 
	C359.596191,417.652405 356.877075,419.559021 354.707733,421.740326 
	C337.703369,438.838562 320.623505,455.861664 303.592926,472.933868 
	C302.101776,474.428619 300.130463,475.655243 300.017090,478.481750 
	C294.670074,479.754364 289.427185,481.327789 283.484985,481.065002 
z"/>
<path fill="#B53DF6" opacity="1.000000" stroke="none" 
	d="
M321.658875,42.323284 
	C329.186432,43.676682 335.873383,46.661407 342.870575,49.564976 
	C344.854370,52.857155 342.505310,54.563419 340.885406,56.259796 
	C335.278564,62.131428 329.479370,67.817734 323.699280,73.519356 
	C321.451965,75.736122 319.604401,78.293373 317.049133,80.723282 
	C308.769440,81.183510 301.613800,78.146935 294.061462,75.312149 
	C292.263306,72.960884 292.609192,70.753799 294.157837,69.114769 
	C302.871368,59.892708 311.312988,50.381851 321.658875,42.323284 
z"/>
<path fill="#3DA6E6" opacity="1.000000" stroke="none" 
	d="
M478.065369,214.535156 
	C475.899597,215.143433 474.685577,216.831909 473.294800,218.218246 
	C465.195190,226.291733 457.125397,234.395157 449.018219,242.461029 
	C447.741669,243.731079 446.669678,245.287003 444.494843,245.934158 
	C442.442078,245.156128 442.162537,243.525253 441.884125,241.868759 
	C440.872955,235.852203 439.868317,229.835693 439.650696,223.326294 
	C443.262268,217.410461 448.506104,213.491394 452.944763,208.824402 
	C457.175629,204.375931 461.523926,200.030609 465.997559,195.823090 
	C467.773071,194.153214 469.586945,192.153412 472.813232,193.720734 
	C475.516144,200.480576 477.194672,207.193878 478.065369,214.535156 
z"/>
<path fill="#A849F4" opacity="1.000000" stroke="none" 
	d="
M316.932495,80.505157 
	C316.770477,77.663620 318.318115,76.156471 319.874695,74.608429 
	C326.475098,68.044235 333.057587,61.461861 339.619934,54.859642 
	C340.892456,53.579407 342.449860,52.490452 342.980377,50.232681 
	C350.827240,51.792614 357.579712,56.082523 364.959717,59.624313 
	C365.053833,60.951691 364.894684,61.977684 364.177673,62.701443 
	C355.387695,71.574280 347.216278,81.085083 336.949829,88.926041 
	C329.394897,87.851204 322.614594,85.667931 316.932495,80.505157 
z"/>
<path fill="#4B9AE8" opacity="1.000000" stroke="none" 
	d="
M473.067200,193.549637 
	C470.668915,193.778961 469.153717,195.319733 467.600677,196.880783 
	C460.432343,204.086044 453.246521,211.274078 446.037415,218.438522 
	C444.753510,219.714447 443.678375,221.281326 441.492981,221.930298 
	C439.725220,221.638000 438.816254,220.584183 438.511078,219.286865 
	C437.113922,213.348373 434.596100,207.671021 434.363800,201.076355 
	C434.664429,199.511169 435.233246,198.488693 436.065674,197.662048 
	C444.191528,189.592834 452.192413,181.397552 460.431427,173.443146 
	C461.734619,172.184952 463.177368,170.943283 465.562683,171.814804 
	C468.240845,179.084473 470.628632,186.120850 473.067200,193.549637 
z"/>
<path fill="#CD28F9" opacity="1.000000" stroke="none" 
	d="
M228.267029,73.189125 
	C227.796494,70.348282 229.537537,68.964439 231.051544,67.450554 
	C240.863815,57.639042 250.683975,47.835354 260.476837,38.004513 
	C261.743134,36.733318 263.295715,35.665730 263.932312,33.492599 
	C270.753967,32.263367 277.411346,33.688332 284.556763,34.092949 
	C286.718811,37.413239 284.047638,39.055908 282.336212,40.815292 
	C274.836945,48.524727 267.167969,56.068054 259.563904,63.674976 
	C256.883575,66.356293 254.286835,69.113350 251.488373,72.220207 
	C243.600632,72.789970 236.172272,75.262070 228.267029,73.189125 
z"/>
<path fill="#33AFE5" opacity="1.000000" stroke="none" 
	d="
M268.751923,444.765503 
	C269.206512,447.666107 267.449554,449.050842 265.930115,450.570343 
	C257.131348,459.369598 248.322754,468.159058 239.544022,476.978241 
	C238.272598,478.255493 236.712463,479.326691 236.069946,481.505737 
	C229.485443,481.656952 223.075623,480.681335 216.367783,479.016052 
	C214.246338,475.805145 216.724869,474.178864 218.331985,472.514160 
	C225.136063,465.466370 232.082779,458.554779 239.093277,451.712677 
	C241.707901,449.160889 243.618469,445.976959 246.925858,443.543243 
	C254.402573,443.055328 261.557739,441.458801 268.751923,444.765503 
z"/>
<path fill="#6088EB" opacity="1.000000" stroke="none" 
	d="
M152.325195,456.680359 
	C145.735245,454.083405 140.124954,450.186920 134.109070,446.414154 
	C132.553604,442.718353 135.113998,440.875854 136.950546,438.924377 
	C143.944458,431.492737 151.615158,424.715240 158.574463,416.741516 
	C161.020111,415.929291 162.761414,416.924866 164.478210,417.928741 
	C169.444702,420.832947 174.909531,422.903015 179.464355,427.106201 
	C180.054535,429.282196 179.197769,430.744934 178.032745,431.951721 
	C170.178589,440.087341 162.283890,448.184479 153.996872,455.885437 
	C153.645615,456.211914 153.107697,456.326294 152.325195,456.680359 
z"/>
<path fill="#BE35F7" opacity="1.000000" stroke="none" 
	d="
M321.642426,41.987190 
	C321.722168,44.361229 319.961212,45.505329 318.588348,46.887608 
	C311.480225,54.044373 304.324402,61.153778 297.211060,68.305412 
	C295.836761,69.687126 294.091553,70.864159 294.012573,73.480057 
	C293.126892,75.306213 291.639435,75.715973 290.183502,75.487457 
	C284.565948,74.605766 278.800781,74.604355 272.993713,72.537956 
	C269.608154,69.388115 271.904358,67.107224 273.799896,65.098305 
	C279.858276,58.677536 286.197906,52.528179 292.467743,46.313610 
	C295.419617,43.387753 298.083282,40.156673 301.722351,37.410835 
	C308.603271,37.987694 314.922516,39.996960 321.642426,41.987190 
z"/>
<path fill="#B53DF6" opacity="1.000000" stroke="none" 
	d="
M39.928379,316.452026 
	C42.097851,315.860596 43.317375,314.166870 44.714161,312.775177 
	C52.140156,305.376373 59.534359,297.945618 66.968529,290.555084 
	C68.250542,289.280579 69.325073,287.716827 71.507233,287.067108 
	C73.786636,287.321686 74.550278,288.802856 74.884148,290.452332 
	C75.828339,295.117126 77.508972,299.626984 77.810493,304.821838 
	C77.525963,307.707703 75.944885,309.419159 74.289368,311.049652 
	C67.099022,318.131287 60.052841,325.358002 52.825008,332.400696 
	C51.102108,334.079437 49.479176,336.244751 46.196304,335.263275 
	C43.158966,329.227936 41.430576,323.085419 39.928379,316.452026 
z"/>
<path fill="#6B7EEC" opacity="1.000000" stroke="none" 
	d="
M158.989563,416.796326 
	C159.207047,419.653381 157.464600,421.033905 155.952942,422.545471 
	C150.003113,428.495056 144.064331,434.455750 138.096558,440.387329 
	C136.565811,441.908783 135.095947,443.454041 134.097198,445.791870 
	C127.825569,443.134064 123.050858,438.183807 117.105453,434.415222 
	C116.090042,431.997284 117.380135,430.554260 118.650803,429.268555 
	C126.477875,421.348969 134.204605,413.327850 142.640518,405.539612 
	C149.610901,407.205902 154.805679,411.076416 158.989563,416.796326 
z"/>
<path fill="#7575ED" opacity="1.000000" stroke="none" 
	d="
M143.126190,405.527405 
	C141.300766,410.245178 137.475281,412.854706 134.391418,416.068604 
	C128.751953,421.945831 122.989159,427.704773 117.113831,433.810791 
	C111.674843,429.630249 106.399834,425.151978 100.985916,420.358093 
	C101.008835,419.019531 101.553085,418.197662 102.273300,417.501007 
	C110.681046,409.368958 118.664871,400.807892 127.563126,392.683685 
	C129.906311,392.192505 131.465332,393.226227 132.624725,394.571289 
	C135.896820,398.367432 141.057922,400.267303 143.126190,405.527405 
z"/>
<path fill="#5492E9" opacity="1.000000" stroke="none" 
	d="
M152.326080,456.990417 
	C152.276367,454.643707 154.039093,453.504883 155.404037,452.114838 
	C163.158249,444.218109 170.943573,436.351959 178.878525,428.175415 
	C179.982834,426.917694 181.206100,426.853302 182.289307,427.281738 
	C187.054672,429.166412 192.159897,430.308289 196.548294,433.861694 
	C197.822281,436.425903 197.228363,438.541107 195.691132,440.160889 
	C187.617462,448.668182 179.680847,457.321777 170.311920,464.996033 
	C163.583374,463.780640 158.404205,459.842773 152.326080,456.990417 
z"/>
<path fill="#18C6E1" opacity="1.000000" stroke="none" 
	d="
M428.175354,333.084534 
	C432.015869,332.720856 433.915558,330.587921 435.910858,328.591370 
	C449.144562,315.349274 462.376007,302.104919 475.635040,288.888214 
	C477.024719,287.502991 478.177826,285.792206 480.507080,285.066467 
	C480.161743,290.200714 479.489136,295.400940 478.469360,300.818481 
	C475.164215,300.682587 473.645721,302.866669 471.903656,304.606995 
	C454.342926,322.150665 436.800812,339.712921 419.228912,357.245392 
	C417.837769,358.633453 416.693451,360.392761 414.229980,360.916748 
	C412.275970,358.956085 413.435547,357.120972 414.449799,355.489349 
	C418.735413,348.594971 422.240540,341.270905 426.558044,333.973572 
	C427.021515,333.541443 427.227905,333.390869 428.175354,333.084534 
z"/>
<path fill="#AD45F5" opacity="1.000000" stroke="none" 
	d="
M45.935028,335.432434 
	C47.287983,334.917053 48.339294,334.160309 49.297684,333.198517 
	C58.155777,324.309052 67.020805,315.426514 75.966156,306.208984 
	C77.945610,305.774170 78.633347,307.213348 79.097946,308.574768 
	C80.788071,313.527405 83.019882,318.327118 83.546242,324.013428 
	C83.103592,326.607819 81.829178,328.326263 80.313545,329.871521 
	C73.379547,336.941040 66.377274,343.943237 59.303963,350.872894 
	C57.806519,352.339966 56.305183,354.076843 53.469742,353.213745 
	C50.072571,347.563171 47.927444,341.733032 45.935028,335.432434 
z"/>
<path fill="#C72EF8" opacity="1.000000" stroke="none" 
	d="
M301.587067,37.093597 
	C302.207672,39.650711 300.467651,41.032490 298.955902,42.544155 
	C291.140228,50.359310 283.314697,58.164677 275.519989,66.000679 
	C274.255890,67.271461 272.708496,68.339668 272.064728,70.506180 
	C271.417786,71.905624 270.493988,72.730591 269.335541,72.768814 
	C263.720123,72.954109 258.008484,74.380791 252.287720,71.260696 
	C251.793777,68.334625 253.551712,66.950043 255.071152,65.430542 
	C263.870483,56.630695 272.679688,47.840736 281.459076,39.021046 
	C282.730560,37.743717 284.290802,36.672382 284.932678,34.492401 
	C290.390778,35.117126 295.783264,36.069256 301.587067,37.093597 
z"/>
<path fill="#9B54F2" opacity="1.000000" stroke="none" 
	d="
M336.909668,88.501511 
	C345.628571,78.321648 355.129028,69.349876 364.824280,60.111687 
	C369.998840,62.714146 374.874451,65.479912 379.905823,68.559509 
	C381.300171,70.796196 380.481964,72.487877 379.165649,73.812538 
	C371.117859,81.911568 363.620636,90.580132 354.265198,97.831848 
	C347.210358,96.835457 341.484924,93.888840 336.909668,88.501511 
z"/>
<path fill="#5492E9" opacity="1.000000" stroke="none" 
	d="
M465.836700,171.685516 
	C463.618683,172.245178 462.497803,174.048843 461.107513,175.412094 
	C452.711426,183.645004 444.348785,191.911987 435.769592,200.494843 
	C430.076782,196.209152 429.189087,189.546951 427.754395,182.767853 
	C429.597107,178.268753 433.165833,175.664124 436.162384,172.598282 
	C441.039276,167.608612 445.932831,162.630081 450.997681,157.830597 
	C452.763184,156.157623 454.576691,154.137589 457.806458,155.727356 
	C461.679199,160.573547 462.539429,166.555649 465.836700,171.685516 
z"/>
<path fill="#816BEF" opacity="1.000000" stroke="none" 
	d="
M127.996864,392.802002 
	C127.829750,394.805969 126.717941,395.847900 125.621170,396.865540 
	C117.474548,404.424377 110.534439,413.243134 101.196472,419.982300 
	C96.551804,416.299957 92.483063,412.343536 89.029724,407.360199 
	C88.906136,405.446899 89.702187,404.205383 90.769150,403.124664 
	C97.619003,396.186615 104.422211,389.201050 111.504333,382.497040 
	C112.591766,381.467651 113.863976,380.686798 115.713135,380.265869 
	C122.046074,382.344788 125.736076,386.694702 127.996864,392.802002 
z"/>
<path fill="#3DA6E6" opacity="1.000000" stroke="none" 
	d="
M245.887695,444.733948 
	C246.206085,447.651672 244.465668,449.032928 242.953995,450.544495 
	C235.138565,458.359375 227.313171,466.164398 219.518951,474.000397 
	C218.255173,475.270905 216.705276,476.337128 216.066528,478.505859 
	C210.265564,478.864960 204.998154,476.355743 199.168549,475.438110 
	C197.223007,472.411377 199.209900,470.674347 200.761612,469.112610 
	C209.830795,459.984680 218.688629,450.641815 228.526443,441.732544 
	C234.668655,441.592163 240.636566,440.402985 245.887695,444.733948 
z"/>
<path fill="#A44CF4" opacity="1.000000" stroke="none" 
	d="
M53.198303,353.350830 
	C54.391048,352.857178 55.315197,352.185944 56.151424,351.339966 
	C64.672340,342.719727 73.196594,334.102783 81.882431,325.186646 
	C83.626541,324.599701 84.589882,325.601501 85.159912,326.755402 
	C87.388557,331.266815 90.163216,335.585541 90.532578,341.194885 
	C90.249748,342.196198 90.768318,341.518005 90.395149,342.058838 
	C83.129829,352.588043 73.607597,360.929504 64.004662,369.186554 
	C63.658802,369.483917 63.054596,369.398529 62.223019,369.206909 
	C57.684212,364.676056 56.479023,358.613739 53.198303,353.350830 
z"/>
<path fill="#816BEF" opacity="1.000000" stroke="none" 
	d="
M405.768921,88.827332 
	C410.480164,92.568993 414.989716,96.029434 418.918213,100.592094 
	C419.712280,102.654106 418.526855,103.733223 417.498199,104.749245 
	C410.457764,111.703316 403.577545,118.818756 396.442749,125.677139 
	C395.122192,126.946495 393.638824,127.991974 391.345947,128.173477 
	C385.290131,125.589439 381.195068,121.385139 378.361145,115.497459 
	C378.662354,113.188026 379.977448,111.874199 381.261932,110.573586 
	C387.585968,104.170128 393.944550,97.800621 400.357758,91.486542 
	C401.762848,90.103142 403.135315,88.527298 405.768921,88.827332 
z"/>
<path fill="#6088EB" opacity="1.000000" stroke="none" 
	d="
M458.046997,155.589417 
	C455.457642,155.747131 453.945465,157.556992 452.302612,159.182617 
	C444.702728,166.702682 437.085083,174.204819 429.173798,181.872986 
	C427.301636,182.355118 426.326416,181.355667 425.704468,180.243210 
	C423.330963,175.997971 420.512207,171.933640 419.813293,166.567474 
	C420.181519,164.462921 421.353119,163.287170 422.537323,162.131531 
	C429.152771,155.675491 435.580292,149.029938 442.212860,142.592545 
	C443.931305,140.924667 445.534668,138.735947 448.811829,139.738861 
	C452.612946,144.730759 455.469818,149.879913 458.046997,155.589417 
z"/>
<path fill="#7575ED" opacity="1.000000" stroke="none" 
	d="
M390.772339,127.390572 
	C393.319794,126.810654 394.563324,124.878113 396.090240,123.395042 
	C403.615875,116.085495 411.112183,108.745750 418.833496,101.157684 
	C422.697876,104.999710 426.347565,109.100716 430.026123,113.549828 
	C430.698883,115.308357 430.235291,116.604492 429.289734,117.569275 
	C421.295502,125.726128 413.823242,134.423340 404.374298,141.547943 
	C397.536499,138.952881 393.778381,133.647324 390.772339,127.390572 
z"/>
<path fill="#9B54F2" opacity="1.000000" stroke="none" 
	d="
M61.941425,369.410065 
	C71.423775,360.446686 80.481926,351.371216 89.268982,341.497986 
	C95.600937,344.194153 97.036171,350.296570 99.024429,356.395325 
	C98.446823,358.788696 97.006859,360.183990 95.612549,361.588745 
	C89.322746,367.925751 83.037590,374.268158 76.654366,380.510742 
	C75.045685,382.083923 73.521660,384.076813 70.463013,383.212708 
	C67.210724,378.732605 63.916878,374.677460 61.941425,369.410065 
z"/>
<path fill="#6682EB" opacity="1.000000" stroke="none" 
	d="
M449.065430,139.597260 
	C446.724213,140.176041 445.484772,142.070969 443.976288,143.537384 
	C436.429840,150.873505 428.909760,158.236755 421.167114,165.850800 
	C414.772766,164.416412 413.709961,158.840134 411.735840,153.572144 
	C411.981354,151.277954 413.075989,149.814377 414.351288,148.503387 
	C421.503510,141.150986 428.776886,133.918808 436.096252,126.733047 
	C436.806610,126.035637 437.626770,125.466774 438.994507,125.173615 
	C442.578766,129.820404 445.798157,134.529922 449.065430,139.597260 
z"/>
<path fill="#4B9AE8" opacity="1.000000" stroke="none" 
	d="
M170.134796,465.435425 
	C170.140686,462.893860 171.838364,461.681122 173.226227,460.286957 
	C179.788208,453.695038 186.378357,447.131226 192.946320,440.545258 
	C194.340546,439.147125 195.996735,437.891724 196.017944,435.251892 
	C197.917053,432.969574 200.140274,433.686646 202.117172,434.392670 
	C205.695084,435.670471 209.692932,435.820862 213.079987,438.590820 
	C214.276001,440.889282 213.360016,442.531860 212.088409,443.867462 
	C203.852570,452.517761 195.421738,460.976501 186.755127,469.196869 
	C186.162170,469.759308 185.270905,469.923157 184.294052,470.612488 
	C179.439285,469.139282 174.874176,467.446777 170.134796,465.435425 
z"/>
<path fill="#925CF1" opacity="1.000000" stroke="none" 
	d="
M353.866730,97.488525 
	C360.728699,89.027626 368.740265,82.146919 375.974365,74.509628 
	C377.425873,72.977249 379.321289,71.780273 379.995361,69.219666 
	C384.288055,71.679649 388.514465,74.485970 392.899170,77.601044 
	C393.869476,79.858536 393.240540,81.595680 391.918152,82.950310 
	C384.050812,91.009415 376.666656,99.570061 367.345001,106.617783 
	C361.417053,105.508812 356.747162,102.942223 353.866730,97.488525 
z"/>
<path fill="#8A63F0" opacity="1.000000" stroke="none" 
	d="
M366.888550,106.486450 
	C373.464325,98.313690 381.156036,91.671028 388.159332,84.357735 
	C389.882843,82.557915 391.779877,80.912384 392.907043,78.220230 
	C397.314545,81.382248 401.571594,84.854706 405.968872,88.640350 
	C398.022461,95.758438 391.099182,103.756462 383.467377,111.027733 
	C382.156799,112.276405 380.813019,113.490219 379.186096,114.882355 
	C372.633392,115.603424 369.919708,110.941017 366.888550,106.486450 
z"/>
<path fill="#8A63F0" opacity="1.000000" stroke="none" 
	d="
M116.185318,380.538452 
	C107.188538,389.495483 98.337334,398.107635 89.188049,406.883026 
	C84.763176,404.018219 82.188690,399.662537 79.031448,395.365967 
	C78.908073,393.033691 80.155899,391.681610 81.448334,390.377075 
	C87.871452,383.894012 94.306122,377.422150 100.818718,371.028900 
	C102.361694,369.514221 103.979156,368.044586 106.732750,368.106934 
	C111.548195,371.120667 115.068367,374.791443 116.185318,380.538452 
z"/>
<path fill="#41A3E7" opacity="1.000000" stroke="none" 
	d="
M184.386917,470.910767 
	C184.277939,468.647491 186.035019,467.511108 187.396790,466.126251 
	C195.827042,457.553589 204.286865,449.009979 212.898193,440.155151 
	C217.415024,437.673126 223.604568,438.698334 227.896576,442.730530 
	C227.718185,445.367981 225.950378,446.518311 224.570419,447.907318 
	C217.192337,455.333221 209.767899,462.713043 202.384888,470.134064 
	C201.112488,471.412994 199.554657,472.500610 199.023346,474.756470 
	C194.055328,474.335632 189.395950,472.719391 184.386917,470.910767 
z"/>
<path fill="#6B7EEC" opacity="1.000000" stroke="none" 
	d="
M439.190735,124.841263 
	C435.471130,131.228607 429.588196,135.482819 424.748718,140.712875 
	C421.024048,144.738174 417.110657,148.588852 413.119141,152.815735 
	C406.804474,151.854385 405.083252,146.938828 403.795258,141.463715 
	C410.641388,133.143417 418.523102,126.336281 425.678802,118.822182 
	C427.041077,117.391640 428.376923,115.935921 429.889954,114.194878 
	C433.956909,116.688881 436.124451,120.936913 439.190735,124.841263 
z"/>
<path fill="#925CF1" opacity="1.000000" stroke="none" 
	d="
M107.061241,368.701965 
	C104.648422,369.263672 103.509262,371.036316 102.116768,372.403137 
	C94.555916,379.824493 87.026619,387.278046 79.188446,394.883850 
	C75.344673,391.759033 73.306679,387.320251 70.192604,383.339722 
	C72.362244,382.722137 73.500305,380.952576 74.893166,379.586121 
	C82.453178,372.169373 89.981308,364.720123 97.820099,357.121826 
	C103.998688,358.504852 105.590904,363.479736 107.061241,368.701965 
z"/>
<path fill="#F308FE" opacity="1.000000" stroke="none" 
	d="
M176.725937,47.114006 
	C176.807953,47.407547 176.579132,47.608482 176.096649,47.853676 
	C176.077560,47.655708 176.268265,47.363533 176.725937,47.114006 
z"/>
<path fill="#06D6DF" opacity="1.000000" stroke="none" 
	d="
M353.275970,461.874969 
	C353.195953,461.590332 353.422882,461.388947 353.901855,461.142365 
	C353.920746,461.335876 353.730438,461.622894 353.275970,461.874969 
z"/>

<path fill="#E118FB" opacity="1.000000" stroke="none" 
	d="
M160.892471,97.143951 
	C160.912827,97.342705 160.724304,97.630501 160.272446,97.876190 
	C160.193619,97.588486 160.418457,97.388123 160.892471,97.143951 
z"/>
<path fill="#20BFE2" opacity="1.000000" stroke="none" 
	d="
M428.334412,333.833496 
	C428.261993,333.681854 428.357147,333.377625 428.700439,332.985748 
	C428.856323,333.191345 428.707458,333.452301 428.334412,333.833496 
z"/>
<path fill="#816BEF" opacity="1.000000" stroke="none" 
	d="
M225.562317,265.773560 
	C225.881165,278.024353 225.927536,290.044617 225.903244,302.528290 
	C212.768921,316.873932 199.015869,330.071564 185.530014,343.534241 
	C184.253342,344.808746 182.804230,346.044647 180.438965,345.223419 
	C180.118530,332.971405 180.069519,320.951141 180.092804,308.467438 
	C193.236542,294.129791 206.982620,280.925629 220.470383,267.465240 
	C221.747345,266.190857 223.196152,264.955139 225.562317,265.773560 
z"/>
<path fill="#6088EB" opacity="1.000000" stroke="none" 
	d="
M289.440247,315.229919 
	C289.118866,305.643188 289.071411,296.285858 289.095581,286.464783 
	C302.238007,272.129547 315.981964,258.926605 329.467773,245.467636 
	C330.744659,244.193314 332.192749,242.957703 334.559326,243.770737 
	C334.880432,253.024643 334.928284,262.049042 334.904846,271.537323 
	C333.339996,274.620880 331.395569,276.853668 329.252808,278.978699 
	C318.256653,289.884003 307.360870,300.890503 296.352020,311.782990 
	C294.529816,313.585938 292.929779,316.057251 289.440247,315.229919 
z"/>
<path fill="#5492E9" opacity="1.000000" stroke="none" 
	d="
M289.095032,315.464355 
	C291.372772,314.719360 292.526001,312.947693 293.915283,311.562927 
	C305.826385,299.690765 317.700256,287.781281 329.614288,275.912109 
	C331.011444,274.520233 332.169250,272.800171 334.506470,272.067383 
	C334.881042,280.692139 334.928528,289.383026 334.904297,298.537842 
	C333.143005,301.948792 330.328644,303.831543 328.001770,306.169373 
	C317.474609,316.746094 306.940857,327.316772 296.329529,337.808899 
	C294.513794,339.604248 292.914886,342.058197 289.440979,341.230164 
	C289.119415,332.643372 289.071594,324.285736 289.095032,315.464355 
z"/>
<path fill="#6B7EEC" opacity="1.000000" stroke="none" 
	d="
M334.903687,243.536331 
	C332.625366,244.282181 331.471954,246.055023 330.082031,247.440247 
	C318.401093,259.081696 306.759186,270.762299 295.073578,282.399048 
	C293.574951,283.891418 292.348389,285.867706 289.518738,285.984863 
	C289.119080,277.976013 289.070923,269.950897 289.094482,261.461914 
	C290.857300,258.052155 293.670929,256.168701 295.997894,253.830826 
	C306.525330,243.254044 317.059174,232.683167 327.670654,222.190857 
	C329.486420,220.395477 331.085358,217.941483 334.559448,218.769623 
	C334.880432,227.023285 334.927612,235.047852 334.903687,243.536331 
z"/>
<path fill="#4B9AE8" opacity="1.000000" stroke="none" 
	d="
M289.096436,341.431458 
	C291.369781,340.719727 292.522400,338.952026 293.909790,337.569458 
	C305.332794,326.186066 316.731567,314.778351 328.126587,303.366943 
	C329.894501,301.596497 331.604950,299.768188 334.495728,299.064392 
	C334.880432,307.025543 334.928345,315.049377 334.904388,323.536987 
	C333.259705,327.185699 330.670990,329.524475 328.212830,331.976807 
	C320.240692,339.930054 312.309753,347.924652 304.301849,355.841736 
	C302.690704,357.434601 301.241302,359.434814 298.223389,359.174683 
	C290.928345,355.385834 288.823883,349.218811 289.096436,341.431458 
z"/>
<path fill="#9B54F2" opacity="1.000000" stroke="none" 
	d="
M180.438995,272.227478 
	C180.117325,264.306580 180.068451,256.615875 180.092911,248.461456 
	C181.659256,245.394043 183.576279,243.155716 185.712860,241.038940 
	C196.552338,230.300018 207.270859,219.439041 218.138550,208.728775 
	C220.056366,206.838745 221.848938,204.199203 225.566132,205.757812 
	C225.881149,213.688065 225.928238,221.378738 225.904327,229.533081 
	C212.763443,243.870987 199.017349,257.073669 185.530670,270.533661 
	C184.253784,271.808014 182.805313,273.043823 180.438995,272.227478 
z"/>
<path fill="#A44CF4" opacity="1.000000" stroke="none" 
	d="
M225.904968,205.533691 
	C223.121002,205.786270 221.714859,207.799103 220.100220,209.410934 
	C208.514923,220.975906 196.954071,232.565399 185.356674,244.118225 
	C183.969208,245.500320 182.819275,247.208633 180.493469,247.932098 
	C180.117310,240.640320 180.068375,233.282852 180.093094,225.461807 
	C181.660370,222.381180 183.596680,220.144272 185.740494,218.021790 
	C196.029877,207.834763 206.178329,197.505112 216.520050,187.371628 
	C218.932999,185.007263 221.156464,181.944702 225.559265,182.767319 
	C225.880798,190.355438 225.928329,197.712723 225.904968,205.533691 
z"/>
<path fill="#7575ED" opacity="1.000000" stroke="none" 
	d="
M180.096039,345.374390 
	C182.378265,344.716339 183.528839,342.939209 184.918228,341.554626 
	C196.599213,329.913849 208.240738,318.233429 219.925842,306.596832 
	C221.424683,305.104218 222.652710,303.130219 225.480957,303.009094 
	C225.880264,310.351624 225.927948,317.711517 225.904694,325.535248 
	C224.000992,329.631958 220.944229,332.226715 218.144241,335.033966 
	C211.001541,342.195190 203.847504,349.345123 196.689148,356.490662 
	C194.927963,358.248688 193.240570,360.127838 190.207886,360.209045 
	C184.044739,357.050201 181.596451,351.706207 180.096039,345.374390 
z"/>
<path fill="#925CF1" opacity="1.000000" stroke="none" 
	d="
M180.093277,272.460876 
	C182.375610,271.719727 183.527924,269.944885 184.917618,268.559906 
	C196.598892,256.918304 208.240952,245.237411 219.926697,233.600342 
	C221.425476,232.107819 222.652817,230.132614 225.481781,230.013428 
	C225.881073,236.354965 225.928787,242.713196 225.905334,249.534927 
	C224.346024,252.595901 222.433762,254.828033 220.302551,256.938843 
	C209.725128,267.414978 199.273651,278.018280 188.663803,288.461365 
	C186.501404,290.589813 184.489380,293.388580 180.437637,292.232605 
	C180.117569,285.640106 180.068954,279.282288 180.093277,272.460876 
z"/>
<path fill="#AD45F5" opacity="1.000000" stroke="none" 
	d="
M225.904358,182.537903 
	C222.710770,183.960541 220.404175,186.089111 218.165924,188.329544 
	C207.127640,199.378525 196.088806,210.426956 185.026962,221.452301 
	C183.748764,222.726288 182.675232,224.287766 180.493927,224.932388 
	C180.117523,218.307022 180.068314,211.615814 180.093033,204.461121 
	C181.655716,201.397110 183.573502,199.165985 185.705490,197.052750 
	C196.053223,186.796112 206.322418,176.460251 216.643066,166.176178 
	C218.150909,164.673676 219.459961,162.880676 222.000702,162.166168 
	C226.949905,168.150620 225.982834,175.201157 225.904358,182.537903 
z"/>
<path fill="#816BEF" opacity="1.000000" stroke="none" 
	d="
M289.440125,225.228561 
	C289.118347,218.307892 289.070068,211.617126 289.094116,204.462738 
	C290.655212,201.398300 292.572662,199.166611 294.704956,197.053146 
	C305.053864,186.795517 315.323944,176.458389 325.645874,166.173431 
	C327.153931,164.670776 328.465454,162.879669 331.008026,162.169678 
	C335.420532,167.894028 335.128510,174.503067 334.904236,181.542511 
	C333.341187,184.620193 331.396484,186.852829 329.253632,188.977921 
	C318.257050,199.883469 307.360992,210.890350 296.351868,221.783173 
	C294.529663,223.586105 292.929657,226.057892 289.440125,225.228561 
z"/>
<path fill="#7575ED" opacity="1.000000" stroke="none" 
	d="
M334.904266,218.535309 
	C332.630859,219.280243 331.477905,221.047516 330.090424,222.430191 
	C318.667236,233.813950 307.268250,245.221985 295.872864,256.633606 
	C294.104950,258.404083 292.394348,260.232483 289.503082,260.935516 
	C289.118591,255.306900 289.070984,249.615799 289.095093,243.461548 
	C290.660065,240.378540 292.604797,238.146027 294.747467,236.021103 
	C305.743439,225.116150 316.638977,214.109924 327.647430,203.217651 
	C329.469635,201.414673 331.069611,198.943604 334.558899,199.770142 
	C334.880249,206.023666 334.927765,212.047791 334.904266,218.535309 
z"/>
<path fill="#7A71EE" opacity="1.000000" stroke="none" 
	d="
M334.904175,199.536469 
	C332.626740,200.281616 331.473328,202.053040 330.084076,203.437744 
	C318.173187,215.309616 306.299622,227.218903 294.385864,239.087891 
	C292.988770,240.479721 291.831329,242.200089 289.493896,242.932373 
	C289.118774,237.307220 289.070740,231.616089 289.094666,225.461792 
	C291.373932,224.719147 292.526672,222.946564 293.915833,221.561981 
	C305.826843,209.690033 317.700531,197.780594 329.614349,185.911423 
	C331.011505,184.519501 332.169495,182.799805 334.506134,182.065826 
	C334.880676,187.690689 334.928131,193.382034 334.904175,199.536469 
z"/>
<path fill="#8A63F0" opacity="1.000000" stroke="none" 
	d="
M331.190796,161.843231 
	C330.617157,163.196030 330.018372,164.422455 329.107391,165.338333 
	C316.851166,177.660522 304.557770,189.945862 292.245300,202.211945 
	C291.563812,202.890839 290.634613,203.321060 289.493561,203.933060 
	C289.118042,197.308319 289.069672,190.617538 289.093750,183.463181 
	C298.070923,173.355850 307.651855,164.381165 316.846283,155.024033 
	C317.560974,154.296692 318.439850,153.840179 319.684509,153.316742 
	C325.042755,154.170959 328.501587,157.255402 331.190796,161.843231 
z"/>
<path fill="#B53DF6" opacity="1.000000" stroke="none" 
	d="
M222.185043,161.837921 
	C221.726089,163.072662 221.243469,164.180161 220.449631,164.978012 
	C207.958176,177.532791 195.431793,190.052841 182.887680,202.555038 
	C182.323608,203.117233 181.515686,203.434738 180.494156,203.931915 
	C180.117661,197.639175 180.068344,191.280762 180.093506,184.458893 
	C184.735077,176.770828 191.510147,171.588776 197.382797,165.588776 
	C201.515457,161.366501 205.170822,156.570724 210.681702,153.317688 
	C216.022614,154.191467 219.504532,157.242737 222.185043,161.837921 
z"/>
<path fill="#8A63F0" opacity="1.000000" stroke="none" 
	d="
M180.093811,292.460022 
	C182.991501,291.569580 184.851654,289.663666 186.744888,287.766541 
	C198.140106,276.347870 209.545517,264.939301 220.970428,253.550323 
	C222.249847,252.274902 223.325363,250.713181 225.507019,250.065063 
	C225.881546,255.025162 225.928940,260.051910 225.905563,265.541382 
	C223.626160,266.283356 222.473282,268.057465 221.083450,269.442566 
	C209.401779,281.084503 197.759308,292.765747 186.073212,304.403198 
	C184.574417,305.895721 183.347107,307.871399 180.516876,307.987610 
	C180.117203,302.976685 180.069305,297.949402 180.093811,292.460022 
z"/>
<path fill="#41A3E7" opacity="1.000000" stroke="none" 
	d="
M298.044525,359.372559 
	C308.885071,349.334686 318.701752,338.424835 329.256378,328.267029 
	C330.798248,326.783142 332.018463,324.890198 334.505432,324.066895 
	C334.651642,331.719788 336.075256,339.500916 334.026306,347.147308 
	C329.530396,363.925659 310.575500,368.846924 298.044525,359.372559 
z"/>
<path fill="#6B7EEC" opacity="1.000000" stroke="none" 
	d="
M190.066956,360.373108 
	C200.563843,350.655670 210.060318,340.065033 220.295288,330.227478 
	C221.825348,328.756836 223.036026,326.879944 225.506683,326.065613 
	C225.777832,333.392120 227.165604,340.913147 224.877914,348.131317 
	C220.532700,361.841461 205.419556,368.086456 192.425430,361.787628 
	C191.693726,361.432953 190.970016,361.061829 190.066956,360.373108 
z"/>
<path fill="#BE35F7" opacity="1.000000" stroke="none" 
	d="
M210.637299,152.988144 
	C210.856384,154.391525 210.181549,155.311890 209.339752,156.151764 
	C200.405502,165.065903 191.481094,173.989944 182.528488,182.885605 
	C182.079147,183.332123 181.396255,183.543625 180.495056,183.930008 
	C180.033295,178.700668 179.333496,173.342041 180.443481,168.132050 
	C182.752289,157.295151 196.974136,147.163513 210.637299,152.988144 
z"/>
<path fill="#925CF1" opacity="1.000000" stroke="none" 
	d="
M319.637695,152.983429 
	C319.833618,154.795715 318.694672,155.802887 317.637421,156.860367 
	C309.764740,164.734512 301.892090,172.608704 294.016479,180.479965 
	C292.843109,181.652695 291.735748,182.945816 289.517761,182.983795 
	C289.017944,178.043655 288.334869,173.014450 289.434570,168.155121 
	C291.814117,157.640976 304.775665,147.379730 319.637695,152.983429 
z"/>
</svg>