<svg version="1.1" id="Layer_1" xmlns="http://www.w3.org/2000/svg" xmlns:xlink="http://www.w3.org/1999/xlink" x="0px" y="0px"
	 width="100%" viewBox="0 0 512 512" enable-background="new 0 0 512 512" xml:space="preserve">
<path fill="#15C9E1" opacity="1.000000" stroke="none" 
	d="
M480.561310,285.771423 
	C479.570923,293.824341 478.761017,301.732117 476.012482,309.644897 
	C474.377472,312.444153 472.560852,314.572906 470.542969,316.589050 
	C419.158173,367.928772 367.797028,419.292175 316.451904,470.671570 
	C314.321808,472.803131 312.094757,474.778992 309.277679,476.615662 
	C303.727814,478.445251 298.388245,479.713348 292.427155,479.903748 
	C290.050354,476.505157 292.630402,474.528381 294.435394,472.601532 
	C299.982697,466.679596 305.794586,461.008423 311.588501,455.326935 
	C321.281311,445.822418 330.476593,435.812073 340.617584,426.763275 
	C341.493164,425.982025 342.187592,425.060242 342.726929,423.606934 
	C344.437866,420.987427 346.855835,419.780060 349.151062,418.466492 
	C382.496277,399.383087 407.116669,372.154999 424.342743,338.013153 
	C425.091522,336.529114 425.724915,334.981689 427.146362,333.493591 
	C429.417999,332.410431 430.949310,331.081726 432.508423,329.500214 
	C446.042999,315.770935 459.654449,302.115967 473.392609,288.589539 
	C475.244141,286.766541 477.163818,284.673279 480.561310,285.771423 
z"/>
<path fill="#ED0DFD" opacity="1.000000" stroke="none" 
	d="
M39.144409,204.207214 
	C39.994061,196.628021 42.173912,189.594299 44.995968,182.345551 
	C88.101791,138.465408 131.594345,95.488243 174.712189,52.137291 
	C176.590164,50.249165 178.799362,48.726517 180.746902,46.412140 
	C187.931564,42.339752 195.687317,41.069923 203.594421,39.095139 
	C205.436966,40.927189 204.191483,42.289413 203.249741,43.608139 
	C202.183777,45.100876 200.791443,46.320911 199.496216,47.616268 
	C148.845062,98.271805 98.202675,148.936096 47.500736,199.540726 
	C45.266911,201.770279 43.494213,205.127640 39.144409,204.207214 
z"/>
<path fill="#E712FC" opacity="1.000000" stroke="none" 
	d="
M38.538586,204.153229 
	C41.163330,203.894897 42.345608,202.135513 43.731735,200.749939 
	C96.098175,148.403458 148.454346,96.046684 200.801590,43.680973 
	C201.963760,42.518375 203.369080,41.523315 203.932373,39.495491 
	C208.526276,37.249420 213.410751,36.926224 218.582214,36.093357 
	C220.976456,38.439762 219.414169,40.219887 218.051682,41.861874 
	C215.820602,44.550625 213.233871,46.917641 210.740158,49.361450 
	C196.132996,63.676311 182.150375,78.623070 167.103912,92.493439 
	C166.359238,93.179909 165.836868,94.028320 165.380371,95.324631 
	C164.132919,97.854576 162.057755,98.995010 160.086578,100.211723 
	C134.259949,116.153114 113.663231,137.245834 97.979584,163.187088 
	C97.203362,164.470978 96.401787,165.734818 94.903633,166.885681 
	C93.077553,167.660004 91.602295,168.090347 90.343857,169.409149 
	C74.659019,185.846466 58.333496,201.650208 42.305981,217.749329 
	C40.506504,219.556854 38.912048,222.015152 35.439220,221.226379 
	C35.432259,215.311478 37.277657,209.913208 38.538586,204.153229 
z"/>
<path fill="#F506FE" opacity="1.000000" stroke="none" 
	d="
M53.115463,164.236694 
	C54.241940,156.770599 58.629143,150.962723 62.144894,144.876541 
	C71.636490,128.445496 83.099281,113.469994 96.479797,99.900703 
	C115.917389,80.188866 138.054901,64.475906 163.591980,52.939186 
	C165.739853,54.880405 164.439926,56.604221 163.396194,58.273026 
	C162.422867,59.829262 161.051727,61.074841 159.758743,62.368378 
	C127.074356,95.066780 94.397354,127.772621 61.651291,160.409164 
	C59.429871,162.623154 57.501850,165.970642 53.115463,164.236694 
z"/>
<path fill="#0ECFE0" opacity="1.000000" stroke="none" 
	d="
M472.566528,322.761841 
	C471.707886,328.707489 469.413391,334.007263 466.998840,339.661865 
	C426.895538,380.536591 386.400116,420.515869 346.280243,460.869690 
	C344.405029,462.755859 342.197998,464.275848 340.252747,466.587555 
	C334.859100,470.684570 328.001007,470.308350 322.361908,473.866211 
	C320.225708,471.883179 321.383575,470.178497 322.598633,468.535889 
	C323.689636,467.061005 325.056213,465.825165 326.350220,464.531036 
	C372.128296,418.748047 417.893890,372.952576 463.733856,327.231598 
	C466.043884,324.927551 467.889832,321.235535 472.566528,322.761841 
z"/>
<path fill="#09D3DF" opacity="1.000000" stroke="none" 
	d="
M340.379120,466.898804 
	C339.801453,464.549225 341.299072,463.192993 342.723328,461.769104 
	C382.362061,422.140656 421.993500,382.504944 461.632935,342.877228 
	C462.910919,341.599670 464.048126,340.057434 466.481445,340.015564 
	C464.279053,348.751648 459.420410,356.469086 455.432617,364.880249 
	C452.215851,367.057404 450.194122,369.959045 447.731293,372.414856 
	C422.308624,397.765167 396.916260,423.146027 371.582245,448.584900 
	C369.246155,450.930603 366.290405,452.642090 364.262939,455.795258 
	C364.033752,456.062439 364.015411,455.999939 364.044281,456.014984 
	C363.904999,456.166656 363.736816,456.303253 363.293701,456.613281 
	C355.942261,460.931488 348.394684,464.046051 340.379120,466.898804 
z"/>
<path fill="#12CCE0" opacity="1.000000" stroke="none" 
	d="
M472.913574,322.615173 
	C470.548279,322.800873 469.192200,324.299957 467.768005,325.724426 
	C420.128906,373.373260 372.483429,421.015686 324.844055,468.664246 
	C323.563385,469.945190 322.042328,471.098053 322.007935,473.532715 
	C317.927216,474.917908 313.861877,475.947815 309.398499,476.905457 
	C309.271088,474.621277 311.049805,473.472961 312.434601,472.087433 
	C365.266144,419.229614 418.111084,366.385162 470.967773,313.552490 
	C472.245880,312.274963 473.319733,310.708679 475.505585,310.064911 
	C476.239899,314.390839 474.265808,318.228271 472.913574,322.615173 
z"/>
<path fill="#F10AFE" opacity="1.000000" stroke="none" 
	d="
M52.558041,164.118027 
	C55.376526,164.280090 56.850334,162.660492 58.398453,161.111740 
	C92.307190,127.189018 126.222572,93.272934 160.146378,59.365269 
	C161.812500,57.699932 163.408798,56.020199 163.920502,53.238773 
	C169.119705,49.963890 174.737686,48.136379 180.618134,46.097233 
	C181.199554,48.454197 179.697174,49.810677 178.271408,51.236118 
	C135.636322,93.861282 93.008186,136.493378 50.372185,179.117630 
	C49.092754,180.396698 47.955116,181.942551 45.518532,181.984161 
	C46.783398,175.796219 49.659473,170.095901 52.558041,164.118027 
z"/>
<path fill="#1DC2E2" opacity="1.000000" stroke="none" 
	d="
M343.662018,423.628937 
	C343.863251,426.352386 341.893005,427.576355 340.403656,429.070129 
	C325.741577,443.775909 311.052307,458.454651 296.360870,473.131134 
	C294.592072,474.898071 292.764465,476.606293 292.062531,479.495422 
	C288.899353,482.312714 284.947266,481.224884 281.564423,481.636963 
	C276.741943,482.224426 271.818298,483.124969 266.438782,482.903748 
	C263.985687,478.968048 267.105072,476.933167 269.162018,474.829285 
	C279.993988,463.750183 291.014526,452.856293 301.988281,441.916870 
	C303.048035,440.860413 304.309967,440.002991 305.009399,438.176208 
	C306.611511,436.306000 308.498840,435.678802 310.413025,435.112671 
	C319.640320,432.383636 328.575562,428.910645 337.220490,424.680450 
	C339.139069,423.741608 341.069824,422.651367 343.662018,423.628937 
z"/>
<path fill="#E118FB" opacity="1.000000" stroke="none" 
	d="
M35.090248,221.417038 
	C37.371960,220.732376 38.515106,218.959045 39.896740,217.580475 
	C55.978981,201.533859 72.030968,185.456924 88.111610,169.408691 
	C89.605461,167.917862 90.869591,165.985077 93.746124,166.043213 
	C95.038506,167.717926 94.437737,169.318985 93.696907,170.795639 
	C88.778931,180.598495 84.471535,190.660431 80.697395,200.955017 
	C80.411659,201.734390 79.900253,202.407349 79.104919,203.319321 
	C77.053627,204.462784 75.535881,205.629089 74.098503,207.057541 
	C62.563015,218.521561 51.189445,230.149078 39.524361,241.480011 
	C37.785999,243.168579 35.987034,246.528061 32.790573,243.206772 
	C32.778194,235.784836 33.568382,228.779053 35.090248,221.417038 
z"/>
<path fill="#27B9E3" opacity="1.000000" stroke="none" 
	d="
M305.672180,438.563049 
	C305.899567,441.155090 304.143799,442.334625 302.762360,443.720154 
	C291.975403,454.538849 281.169922,465.339111 270.358459,476.133362 
	C268.589905,477.899109 266.763702,479.607239 266.063110,482.495789 
	C257.280884,482.722168 248.514099,484.000488 239.430191,481.905029 
	C237.313614,478.556671 240.034622,476.947235 241.746521,475.193512 
	C250.438477,466.289001 259.313721,457.564880 268.094574,448.747406 
	C269.844238,446.990479 271.486420,445.157562 273.294006,442.947632 
	C282.835876,440.503540 292.323914,439.823883 301.531830,437.607666 
	C302.849335,437.290558 304.182861,437.522247 305.672180,438.563049 
z"/>
<path fill="#04D8DF" opacity="1.000000" stroke="none" 
	d="
M364.400726,456.042023 
	C363.728027,453.565491 365.378693,452.112640 366.919220,450.572754 
	C394.431580,423.072021 421.934692,395.562012 449.448547,368.062775 
	C450.840363,366.671661 452.072205,364.968140 454.746399,365.043335 
	C450.683655,375.155365 444.067902,383.892883 437.716736,392.810547 
	C428.979889,405.077972 418.424225,415.716644 407.449799,425.869446 
	C395.901123,436.553467 383.013763,445.569000 369.275543,453.307434 
	C367.747986,454.167877 366.269135,455.114807 364.400726,456.042023 
z"/>
<path fill="#E118FB" opacity="1.000000" stroke="none" 
	d="
M164.331131,95.367828 
	C164.136261,92.649132 166.103577,91.426689 167.590881,89.935463 
	C183.522125,73.962074 199.490677,58.025890 215.421173,42.051750 
	C216.907211,40.561638 218.882156,39.343822 218.984009,36.517853 
	C221.641693,33.705322 225.216232,34.868153 228.212265,34.351833 
	C232.056808,33.689289 236.105408,32.914314 240.566864,33.093430 
	C243.340149,36.549355 240.519348,38.455799 238.681137,40.342468 
	C229.734924,49.524536 220.563126,58.484898 211.552689,67.604439 
	C207.359100,71.848801 202.890839,75.827042 198.807724,80.700989 
	C195.327072,83.771187 191.177765,84.678520 187.392578,86.325127 
	C182.059967,88.644890 176.801865,91.100845 171.655045,93.811203 
	C169.487030,94.952896 167.320007,96.403168 164.331131,95.367828 
z"/>
<path fill="#D720FA" opacity="1.000000" stroke="none" 
	d="
M32.585991,243.118073 
	C35.658451,244.768143 36.469769,241.905426 37.625175,240.767761 
	C49.126675,229.442795 60.494766,217.982452 71.933960,206.593918 
	C73.430267,205.104248 74.649651,203.121735 77.481270,203.010880 
	C79.486893,204.168259 79.417732,205.876511 78.997459,207.502670 
	C77.000854,215.228134 75.732391,223.116745 73.543396,231.193665 
	C62.351379,242.929153 51.109055,254.091492 39.849495,265.235229 
	C37.940609,267.124512 36.158283,269.751038 32.442970,268.239746 
	C32.181194,259.781158 32.195881,251.565887 32.585991,243.118073 
z"/>
<path fill="#D720FA" opacity="1.000000" stroke="none" 
	d="
M198.259750,80.152161 
	C198.275314,77.628059 200.050095,76.478989 201.433258,75.091263 
	C213.413712,63.071201 225.433365,51.090214 237.408691,39.065075 
	C238.897934,37.569626 240.882523,36.351406 240.984009,33.517178 
	C248.688873,33.117275 256.379578,33.069412 264.533875,33.093464 
	C266.707642,35.948189 264.463806,37.546440 262.953033,39.062504 
	C252.454605,49.597775 242.190979,60.372646 231.270081,70.478897 
	C230.154587,71.511162 229.477600,72.841797 228.066650,74.079422 
	C219.248505,76.983742 210.474609,78.616562 201.881866,80.956429 
	C200.752945,81.263847 199.576401,81.087540 198.259750,80.152161 
z"/>
<path fill="#27B9E3" opacity="1.000000" stroke="none" 
	d="
M481.549500,243.769745 
	C482.166046,251.701431 482.494812,259.402222 481.906250,267.553894 
	C469.408051,281.105896 456.424530,293.657593 443.613037,306.379425 
	C442.006927,307.974304 440.154388,309.716156 437.284485,307.746552 
	C436.367432,306.022949 436.322662,304.535248 436.709473,303.068756 
	C438.692688,295.550201 439.406128,287.773346 441.543823,279.897308 
	C453.199066,269.290405 463.593964,257.922302 474.660095,247.239166 
	C476.501251,245.461731 478.075897,242.999268 481.549500,243.769745 
z"/>
<path fill="#30B1E4" opacity="1.000000" stroke="none" 
	d="
M481.906372,243.555374 
	C479.636200,244.265396 478.495972,246.031845 477.116486,247.404968 
	C467.625824,256.851776 458.175537,266.339203 448.689270,275.790466 
	C447.310364,277.164246 446.139557,278.918732 443.517761,278.985138 
	C441.903534,278.169220 441.542938,276.883148 441.657196,275.518066 
	C442.227142,268.708649 441.488281,261.868195 442.299316,254.664413 
	C450.873474,245.884842 459.367767,237.544006 467.750763,229.091034 
	C469.736725,227.088486 471.698883,225.060226 473.760193,223.135071 
	C475.087769,221.895218 476.386810,220.544617 478.773407,220.792175 
	C480.767395,228.246704 481.848328,235.616837 481.906372,243.555374 
z"/>
<path fill="#CF27F9" opacity="1.000000" stroke="none" 
	d="
M228.273026,73.186531 
	C228.274933,70.624397 230.054123,69.476425 231.437775,68.086777 
	C241.426178,58.055061 251.455170,48.063751 261.445496,38.033943 
	C262.721649,36.752747 264.292999,35.682213 264.933929,33.493294 
	C272.258881,32.187214 279.385193,34.117805 286.824402,34.528294 
	C288.423584,38.533001 285.624359,40.431026 283.628662,42.437256 
	C273.724152,52.394119 263.969666,62.504181 253.362457,72.309998 
	C244.837280,72.639626 236.780380,75.149590 228.273026,73.186531 
z"/>
<path fill="#30B1E4" opacity="1.000000" stroke="none" 
	d="
M272.716858,443.808411 
	C273.219238,446.668427 271.455353,448.045654 269.939301,449.561951 
	C260.802399,458.700165 251.655167,467.828094 242.537933,476.985901 
	C241.268692,478.260803 239.706528,479.326538 239.068573,481.505066 
	C231.659912,482.575317 224.623779,480.094116 217.158630,479.413513 
	C215.233963,475.828369 217.826721,474.136200 219.564560,472.343903 
	C226.146103,465.556183 232.873383,458.910034 239.592361,452.257721 
	C242.299316,449.577606 244.702896,446.626526 247.723907,443.701904 
	C256.204376,442.691895 264.315308,442.279633 272.716858,443.808411 
z"/>
<path fill="#B241F5" opacity="1.000000" stroke="none" 
	d="
M325.702087,43.389305 
	C332.684967,45.654655 339.373108,48.142483 346.291443,50.898148 
	C347.043121,54.214058 345.065460,56.039448 343.226654,57.947708 
	C335.669403,65.790375 327.490814,73.030983 320.159912,81.620476 
	C312.153778,82.356087 305.443481,79.027847 298.240601,76.230522 
	C296.298004,73.939857 296.662079,71.739105 298.222046,70.110947 
	C306.979767,60.970390 315.278290,51.347473 325.702087,43.389305 
z"/>
<path fill="#5E89EA" opacity="1.000000" stroke="none" 
	d="
M153.310013,457.044128 
	C146.176178,454.642578 140.465347,450.247711 134.110580,446.416382 
	C133.063507,443.739532 134.679764,442.297363 136.050156,440.914581 
	C143.786835,433.108154 151.455505,425.232635 159.724655,417.457672 
	C161.775085,416.785767 163.331940,417.354706 164.750717,418.187531 
	C170.221848,421.399231 176.290482,423.585968 181.330200,428.107788 
	C181.561661,430.317291 180.417770,431.578888 179.260956,432.760406 
	C171.934006,440.243591 164.508865,447.629333 157.061157,454.992279 
	C156.098923,455.943573 155.008301,456.678162 153.310013,457.044128 
z"/>
<path fill="#5E89EA" opacity="1.000000" stroke="none" 
	d="
M445.786072,134.810989 
	C450.339294,140.670624 453.567627,146.990295 457.017395,153.556671 
	C457.649506,155.890610 456.232056,156.978806 455.102570,158.093002 
	C448.420410,164.684708 441.863922,171.402512 435.150146,177.961960 
	C433.493134,179.580902 431.754395,181.114288 428.888977,181.314178 
	C427.305298,181.077148 426.195923,180.525574 425.608704,179.512405 
	C422.389648,173.958420 418.419098,168.737640 417.654724,161.702820 
	C419.829620,156.998917 423.772552,154.294220 426.967041,150.943390 
	C431.217743,146.484711 435.621246,142.169205 440.031921,137.866333 
	C441.553589,136.381897 442.950073,134.573715 445.786072,134.810989 
z"/>
<path fill="#1DC2E2" opacity="1.000000" stroke="none" 
	d="
M437.493134,307.952728 
	C440.167206,307.893066 441.346466,306.131195 442.734283,304.747345 
	C453.927063,293.586609 465.089508,282.395386 476.283020,271.235382 
	C477.669708,269.852875 478.844849,268.082855 481.481567,268.014404 
	C482.831848,273.771423 480.950317,279.399628 480.905457,285.564880 
	C478.004883,286.426575 476.150970,288.337921 474.259277,290.232605 
	C460.873444,303.639496 447.481720,317.040558 434.062042,330.413544 
	C432.568176,331.902222 431.348419,333.879242 428.521576,333.993103 
	C427.006561,332.667358 427.389893,331.171814 427.897186,329.770569 
	C430.273102,323.207611 432.865295,316.724457 435.161072,310.130798 
	C435.490997,309.183197 436.140198,308.396088 437.493134,307.952728 
z"/>
<path fill="#6A7FEC" opacity="1.000000" stroke="none" 
	d="
M445.975586,134.621460 
	C438.348907,141.445023 431.718048,149.140701 424.378876,156.108551 
	C422.577911,157.818359 420.700073,159.447189 418.507080,161.291489 
	C416.874176,161.742584 415.734406,161.244598 415.082520,160.285690 
	C411.392303,154.857513 406.740875,150.035294 404.549011,143.326904 
	C412.812897,135.289459 420.608765,127.191887 428.625702,119.318840 
	C429.686127,118.277451 430.761627,117.219894 432.686371,116.927673 
	C437.852722,122.288582 441.660278,128.427979 445.975586,134.621460 
z"/>
<path fill="#6A7FEC" opacity="1.000000" stroke="none" 
	d="
M160.111008,417.522278 
	C159.876297,420.093506 158.182510,421.286163 156.815170,422.675140 
	C149.312302,430.296692 141.791580,437.900665 134.114319,445.809021 
	C127.591179,442.589203 122.054222,437.892853 116.033699,433.365967 
	C115.952118,432.038483 116.158737,431.032257 116.878220,430.309113 
	C125.235733,421.908936 132.989166,412.885742 142.723480,405.440918 
	C149.931091,407.614441 155.565430,411.650360 160.111008,417.522278 
z"/>
<path fill="#A64BF4" opacity="1.000000" stroke="none" 
	d="
M319.934357,81.504356 
	C319.734772,78.438766 321.585541,76.935982 323.211700,75.278908 
	C330.861481,67.483574 338.492493,59.669834 346.325928,51.514324 
	C353.326263,53.419361 359.757599,56.460598 365.958801,60.627453 
	C366.198181,62.825874 364.998566,64.047333 363.828217,65.214767 
	C355.699585,73.323067 347.753387,81.615150 339.060303,89.659302 
	C331.738617,88.855904 325.298676,86.619003 319.934357,81.504356 
z"/>
<path fill="#BC37F7" opacity="1.000000" stroke="none" 
	d="
M325.609009,43.088657 
	C325.733704,45.366589 323.962860,46.503933 322.590942,47.885590 
	C315.482544,55.044571 308.324493,62.154266 301.210815,69.308037 
	C299.837646,70.688950 298.081573,71.858955 298.012329,74.480820 
	C297.025024,76.285103 295.523773,76.502243 294.028229,76.248405 
	C288.179352,75.255653 282.214783,74.860542 276.224915,72.696777 
	C274.396149,70.507545 274.877777,68.489563 276.307617,66.996964 
	C285.691956,57.200699 294.774872,47.089939 305.661011,38.323235 
	C312.599945,39.005779 318.955109,40.831165 325.609009,43.088657 
z"/>
<path fill="#7675EE" opacity="1.000000" stroke="none" 
	d="
M432.906860,116.578377 
	C425.433807,125.746620 416.731415,133.530777 408.547028,141.821732 
	C407.915619,142.461349 406.774933,142.598297 405.518921,142.982941 
	C403.957520,143.091568 402.801483,142.756607 402.053650,141.869659 
	C398.423950,137.564545 393.702881,134.129166 391.505768,128.336182 
	C396.168793,121.928276 402.031128,117.066093 407.327545,111.663116 
	C410.892792,108.026161 414.156281,104.048042 418.695435,100.972351 
	C423.617950,106.015060 428.196533,111.142128 432.906860,116.578377 
z"/>
<path fill="#C62FF8" opacity="1.000000" stroke="none" 
	d="
M305.633240,37.985687 
	C305.731781,40.374512 303.953339,41.514164 302.576782,42.899536 
	C294.857971,50.667732 287.092041,58.389050 279.367615,66.151665 
	C278.097626,67.427925 276.535278,68.509399 276.021057,70.771912 
	C275.343811,71.936424 274.542023,72.726135 273.560913,72.745369 
	C267.208740,72.869965 260.762329,74.449051 254.285278,71.252731 
	C254.274353,68.624680 256.053497,67.477570 257.436157,66.087120 
	C265.772461,57.703728 274.138550,49.349907 282.508881,41.000446 
	C284.163513,39.349945 285.849091,37.737484 286.904083,35.201775 
	C293.258392,35.016754 299.291840,36.238857 305.633240,37.985687 
z"/>
<path fill="#A64BF4" opacity="1.000000" stroke="none" 
	d="
M61.314026,368.060425 
	C57.967972,362.349182 54.980541,356.567474 51.934444,350.419617 
	C52.127827,347.953186 53.412117,346.471436 54.830639,345.052704 
	C61.706841,338.175659 68.556252,331.271606 75.479111,324.441498 
	C76.997841,322.943146 78.517349,321.363464 81.263763,321.357422 
	C86.322021,326.292023 88.236671,332.424103 89.565643,339.190918 
	C89.429939,340.059052 89.362831,340.598877 89.052643,340.969513 
	C80.786736,350.847290 72.032692,360.233246 61.314026,368.060425 
z"/>
<path fill="#7675EE" opacity="1.000000" stroke="none" 
	d="
M143.123154,405.528687 
	C134.697937,415.330963 125.545738,423.981293 116.188828,432.886902 
	C110.287148,429.750305 106.512054,424.276611 101.020157,420.359619 
	C101.106361,418.647156 102.079185,417.739319 103.027298,416.824280 
	C111.198830,408.938080 118.960785,400.638062 127.569641,392.705811 
	C134.568176,394.851227 139.027481,399.833862 143.123154,405.528687 
z"/>
<path fill="#5393E9" opacity="1.000000" stroke="none" 
	d="
M153.122269,457.426147 
	C161.631363,447.328461 171.124054,438.353699 180.813934,429.117188 
	C181.850433,428.140503 182.868378,427.925049 183.792984,428.224030 
	C189.017044,429.913269 194.441010,431.144745 199.151413,434.851746 
	C199.734726,437.071808 198.599365,438.359833 197.457504,439.529633 
	C188.929749,448.266327 180.237381,456.840057 171.322601,465.672150 
	C164.683975,464.038635 159.283173,460.238251 153.122269,457.426147 
z"/>
<path fill="#9B54F2" opacity="1.000000" stroke="none" 
	d="
M338.909302,89.494164 
	C339.073547,87.710213 339.835022,86.660484 340.801697,85.705612 
	C349.041718,77.566223 357.275604,69.420631 365.809784,61.114418 
	C372.361694,62.845394 377.153015,67.334457 382.943665,70.655075 
	C382.836456,72.563622 381.645874,73.521446 380.590179,74.565903 
	C373.396088,81.683449 366.236115,88.835052 359.126404,96.036964 
	C358.078033,97.098907 357.064667,98.209068 355.246826,98.828705 
	C348.705261,97.380775 343.225037,94.610519 338.909302,89.494164 
z"/>
<path fill="#5393E9" opacity="1.000000" stroke="none" 
	d="
M427.949707,180.815201 
	C430.596802,180.016220 432.179199,178.302002 433.845123,176.668869 
	C441.419983,169.243134 449.020813,161.843903 456.826996,154.177917 
	C460.633179,159.248184 462.934296,165.171280 465.065704,171.578430 
	C464.504028,174.167740 462.718750,175.465958 461.208801,176.968292 
	C455.005737,183.139938 448.871460,189.380875 442.618744,195.502075 
	C440.497345,197.578842 438.366425,199.795654 434.548401,198.895355 
	C430.254547,193.540314 427.419891,187.930389 427.949707,180.815201 
z"/>
<path fill="#CF27F9" opacity="1.000000" stroke="none" 
	d="
M32.091427,268.425293 
	C34.661774,268.220154 36.036282,266.462189 37.548397,264.950226 
	C47.361462,255.138321 57.165123,245.316971 66.996712,235.523651 
	C68.267975,234.257339 69.334541,232.704010 71.505547,232.062195 
	C74.978622,236.451126 72.575272,241.270676 72.635986,245.909851 
	C72.658920,247.662231 72.121918,249.508957 71.632294,251.684082 
	C61.257572,263.510925 50.033321,273.988525 39.164352,284.815857 
	C37.997730,285.978027 36.607311,286.971710 34.453453,286.229492 
	C31.790714,280.490845 34.075443,274.400208 32.091427,268.425293 
z"/>
<path fill="#3BA7E6" opacity="1.000000" stroke="none" 
	d="
M479.062805,220.521667 
	C468.878876,229.891617 459.833801,240.040024 450.046539,249.430954 
	C448.528992,250.887085 447.339020,252.881058 444.518372,252.984711 
	C442.679199,252.212936 442.027466,250.804474 442.076355,249.298843 
	C442.232422,244.495544 440.962616,239.778076 441.432251,234.572205 
	C449.846222,225.875214 458.246155,217.673050 466.504608,209.328674 
	C467.787903,208.032028 469.040131,206.699051 470.425110,205.510849 
	C471.803772,204.328018 473.158203,203.008179 475.542114,203.767609 
	C477.352081,209.273285 478.988739,214.523514 479.062805,220.521667 
z"/>
<path fill="#7F6DEF" opacity="1.000000" stroke="none" 
	d="
M418.910156,100.582054 
	C418.922272,102.092888 418.390228,103.091629 417.540222,103.938545 
	C409.806305,111.644409 402.081268,119.359238 394.322052,127.039536 
	C393.881042,127.476067 393.164032,127.633781 392.228577,127.981262 
	C385.388916,126.867119 382.462006,121.664970 379.160126,116.460213 
	C379.137390,114.303093 380.108856,112.945374 381.268158,111.748146 
	C388.184509,104.605629 395.235992,97.597015 402.344147,90.645706 
	C403.177795,89.830444 404.122864,89.150505 405.689240,88.930588 
	C410.444519,92.515251 414.954376,96.013611 418.910156,100.582054 
z"/>
<path fill="#3BA7E6" opacity="1.000000" stroke="none" 
	d="
M246.847031,444.756042 
	C247.219193,447.669586 245.454163,449.047058 243.937561,450.563965 
	C236.086044,458.416992 228.224152,466.259674 220.390396,474.130432 
	C219.120514,475.406311 217.569168,476.491150 217.006256,478.725677 
	C210.886688,478.888092 205.255188,476.507050 199.111832,475.388031 
	C198.468140,472.554626 200.020111,470.933350 201.543167,469.411285 
	C210.730042,460.230377 219.679337,450.809174 229.582565,441.807556 
	C235.639999,441.873291 241.595078,440.443207 246.847031,444.756042 
z"/>
<path fill="#7F6DEF" opacity="1.000000" stroke="none" 
	d="
M127.995262,392.801636 
	C127.841690,394.809052 126.721252,395.844086 125.626732,396.861664 
	C117.490227,404.426331 110.528648,413.216736 101.222824,419.984375 
	C96.837975,416.731140 93.259842,412.984009 90.085938,408.419220 
	C89.290352,406.691559 89.804550,405.416260 90.745026,404.458344 
	C98.733490,396.321594 106.235725,387.682556 115.595673,380.487061 
	C122.242416,382.126160 125.309906,387.088562 127.995262,392.801636 
z"/>
<path fill="#9B54F2" opacity="1.000000" stroke="none" 
	d="
M61.100498,368.450134 
	C64.198364,363.491577 68.741852,360.091400 72.542046,355.980804 
	C77.613144,350.495514 83.435295,345.732239 88.274536,339.500427 
	C94.684792,343.113190 97.203835,349.220612 98.147232,356.539490 
	C90.275414,365.241028 81.950516,373.012085 74.005135,381.159241 
	C73.075966,382.112030 71.976555,382.892944 70.185074,382.254364 
	C66.076439,378.223175 63.805546,373.402161 61.100498,368.450134 
z"/>
<path fill="#4A9BE8" opacity="1.000000" stroke="none" 
	d="
M434.592346,198.333862 
	C437.337708,198.236221 438.841003,196.682709 440.388947,195.126099 
	C446.954254,188.524048 453.537659,181.939850 460.142151,175.376968 
	C461.422028,174.105194 462.504608,172.538910 464.769684,172.020477 
	C467.891022,176.716400 469.646393,181.867279 471.061859,187.561142 
	C470.874908,189.486267 470.153717,190.740723 468.974823,191.745407 
	C461.051392,198.498062 454.162567,206.314301 446.631866,213.469910 
	C444.745300,215.262527 442.943542,217.408737 439.479980,216.425232 
	C435.600067,210.894501 433.686707,205.106308 434.592346,198.333862 
z"/>
<path fill="#41A2E7" opacity="1.000000" stroke="none" 
	d="
M439.803894,216.269226 
	C442.372314,215.728607 443.481842,213.921570 444.907318,212.580338 
	C453.476654,204.517715 460.988403,195.341248 470.809204,188.117065 
	C473.868439,192.676575 474.169495,198.180374 475.895813,203.605591 
	C473.639435,204.265274 472.501129,206.029510 471.121857,207.399841 
	C463.625427,214.847595 456.176147,222.342789 448.684540,229.795410 
	C447.306274,231.166519 446.137695,232.919540 443.518494,232.984406 
	C438.482208,228.291580 438.130707,222.603134 439.803894,216.269226 
z"/>
<path fill="#C62FF8" opacity="1.000000" stroke="none" 
	d="
M34.091087,286.429749 
	C36.373802,285.732849 37.515083,283.954956 38.900303,282.577118 
	C47.609074,273.914948 56.273407,265.208130 64.979431,256.543182 
	C66.257248,255.271423 67.327003,253.708801 69.506729,253.063782 
	C72.618507,254.761642 71.961037,257.627594 72.077675,260.203644 
	C72.190323,262.691620 72.125603,265.187683 71.993469,268.095337 
	C71.278999,271.579193 69.279587,273.829529 67.170258,275.958893 
	C59.318241,283.885468 51.434425,291.780945 43.496754,299.621796 
	C41.857231,301.241333 40.287426,303.075623 37.326981,303.163025 
	C35.091202,297.860992 34.192215,292.426941 34.091087,286.429749 
z"/>
<path fill="#BC37F7" opacity="1.000000" stroke="none" 
	d="
M36.972584,303.537903 
	C48.234978,292.600067 59.036446,281.598969 69.887642,270.186646 
	C72.495026,270.130096 72.870949,272.120819 72.902489,273.862213 
	C72.983597,278.340057 74.350128,282.686279 74.066063,287.579224 
	C72.197281,291.382660 69.279114,293.841980 66.616989,296.515381 
	C60.189686,302.969879 53.766499,309.428833 47.280746,315.824432 
	C45.661137,317.421539 44.200363,319.387543 41.219902,319.208618 
	C38.551197,314.285034 37.529678,309.182343 36.972584,303.537903 
z"/>
<path fill="#B241F5" opacity="1.000000" stroke="none" 
	d="
M81.407532,321.673950 
	C72.597862,329.179962 65.252342,337.599243 57.199623,345.293549 
	C55.637962,346.785706 54.050556,348.250885 52.175400,349.890991 
	C49.668358,344.946472 47.460930,339.839447 45.211014,334.364746 
	C47.594849,329.346924 51.780773,326.250488 55.318726,322.594513 
	C59.795036,317.968933 64.350708,313.416534 68.987305,308.950256 
	C70.996696,307.014679 72.997383,304.914764 76.576492,305.430878 
	C80.341003,310.296661 82.520958,315.389252 81.407532,321.673950 
z"/>
<path fill="#4A9BE8" opacity="1.000000" stroke="none" 
	d="
M171.339523,465.998047 
	C171.317429,463.979614 172.149399,462.373962 173.471649,461.061920 
	C181.806732,452.791412 190.160187,444.539429 198.806030,436.120239 
	C204.538315,433.416779 208.989182,436.534546 213.913452,438.769226 
	C215.504700,441.102142 214.767609,443.001038 213.353653,444.468109 
	C204.665955,453.481812 196.136154,462.660004 186.310028,470.996887 
	C180.900665,470.331909 176.342392,468.094055 171.339523,465.998047 
z"/>
<path fill="#8A63F0" opacity="1.000000" stroke="none" 
	d="
M116.183823,380.542358 
	C109.250687,388.984161 101.242516,395.897644 93.974091,403.532013 
	C92.725693,404.843262 91.508507,406.184204 90.114410,407.809937 
	C85.522438,404.692261 82.393768,400.147552 79.031242,395.364624 
	C78.923409,393.646027 79.543190,392.494812 80.493622,391.532959 
	C88.136475,383.798035 95.666267,375.948730 103.647339,368.554962 
	C104.132233,368.105743 104.753876,367.845581 105.734215,367.540649 
	C111.351143,370.230957 114.595100,374.606689 116.183823,380.542358 
z"/>
<path fill="#B73CF6" opacity="1.000000" stroke="none" 
	d="
M76.440231,305.657043 
	C73.184021,307.015289 71.251633,309.346680 69.077835,311.397766 
	C61.236912,318.796082 54.340782,327.171967 45.496025,333.932983 
	C43.928295,329.237640 41.423565,324.852448 40.936134,319.452026 
	C50.223392,311.005859 58.371620,301.750854 67.265327,293.258545 
	C68.810753,291.782837 70.021675,289.885590 72.506874,289.065247 
	C76.960449,293.774261 77.733940,299.353882 76.440231,305.657043 
z"/>
<path fill="#935BF1" opacity="1.000000" stroke="none" 
	d="
M106.174866,367.522522 
	C97.728424,377.349274 88.533730,385.961914 79.189285,394.883728 
	C75.305984,391.397583 72.656364,387.072662 69.939850,382.399841 
	C77.715614,375.619110 84.222511,367.837097 91.576073,360.924744 
	C93.258324,359.343414 94.653763,357.380127 97.459763,356.657715 
	C103.359718,357.951080 104.837196,362.567963 106.174866,367.522522 
z"/>
<path fill="#8A63F0" opacity="1.000000" stroke="none" 
	d="
M405.913025,88.580246 
	C399.245361,96.980522 391.243439,103.901901 383.972534,111.535881 
	C382.723969,112.846771 381.510834,114.191360 380.122009,115.820518 
	C373.477509,116.051155 370.411194,110.988419 366.549744,106.622208 
	C366.573669,104.651917 367.528992,103.484764 368.571838,102.420410 
	C375.756226,95.087944 383.007477,87.821693 390.350128,80.647461 
	C391.183258,79.833481 392.124023,79.149040 393.687164,78.927078 
	C397.955078,82.014114 401.866516,85.142311 405.913025,88.580246 
z"/>
<path fill="#935BF1" opacity="1.000000" stroke="none" 
	d="
M393.904266,78.572128 
	C385.698669,88.333176 376.547333,96.982300 367.184631,105.878471 
	C361.336334,106.135857 357.798187,102.874275 354.825562,98.410172 
	C363.818726,88.800613 372.328705,79.137688 382.762207,71.026154 
	C386.660858,73.397758 390.212860,75.828049 393.904266,78.572128 
z"/>
<path fill="#41A2E7" opacity="1.000000" stroke="none" 
	d="
M186.152283,471.445007 
	C186.125748,468.907471 187.813950,467.706940 189.190094,466.325134 
	C196.280518,459.205688 203.404709,452.119812 210.487442,444.992737 
	C211.748642,443.723663 213.299500,442.662170 213.936218,440.494904 
	C219.428680,437.278351 224.141083,439.235168 228.843338,442.750488 
	C228.727753,445.374268 226.930878,446.497772 225.573624,447.910675 
	C216.941498,456.896515 207.621185,465.208618 199.163513,474.833374 
	C194.528748,474.675385 190.556198,472.760437 186.152283,471.445007 
z"/>
<path fill="#04D8DF" opacity="1.000000" stroke="none" 
	d="
M363.268127,456.810486 
	C363.199036,456.551483 363.417786,456.360413 363.874146,456.121735 
	C363.887909,456.298096 363.702667,456.566193 363.268127,456.810486 
z"/>

<path fill="#7377ED" opacity="1.000000" stroke="none" 
	d="
M212.439667,341.227478 
	C212.118408,332.641083 212.070267,324.283691 212.094208,315.462524 
	C213.552216,312.719971 215.191544,310.671631 217.094559,308.772766 
	C244.663086,281.264221 272.193634,253.717636 299.734222,226.181122 
	C301.137451,224.778122 302.385681,223.164185 304.680206,222.317383 
	C310.609070,225.883102 316.220398,229.600464 321.986572,233.636780 
	C321.862549,235.554703 320.662567,236.507690 319.607086,237.558868 
	C286.129700,270.899567 252.792694,304.380737 219.325104,337.731110 
	C217.512390,339.537445 215.923370,342.012665 212.439667,341.227478 
z"/>
<path fill="#7F6DEF" opacity="1.000000" stroke="none" 
	d="
M304.683960,222.017365 
	C304.817841,223.997375 303.449646,225.041779 302.286530,226.205292 
	C273.637512,254.863937 244.986847,283.520935 216.311829,312.153564 
	C215.276459,313.187408 213.990692,313.970490 212.493958,314.934570 
	C212.118408,305.307709 212.070511,295.616730 212.095367,285.461975 
	C213.598740,282.552032 215.419357,280.444275 217.430099,278.439301 
	C238.809662,257.120728 260.140289,235.753128 281.507935,214.422623 
	C283.246887,212.686707 284.757782,210.589996 287.733826,209.954422 
	C293.470428,213.938583 299.487305,217.132660 304.683960,222.017365 
z"/>
<path fill="#6A7FEC" opacity="1.000000" stroke="none" 
	d="
M212.095001,341.461639 
	C214.556290,340.671112 215.762482,338.705750 217.259384,337.210602 
	C250.333908,304.175079 283.380035,271.111053 316.453644,238.074646 
	C317.959290,236.570694 319.194458,234.674133 321.792786,234.016266 
	C325.073029,236.453796 328.806000,237.881882 331.685059,241.018066 
	C333.444946,243.187241 332.021240,244.604004 330.908813,246.018753 
	C329.776184,247.459213 328.401367,248.688156 327.106079,249.983643 
	C298.838745,278.254669 270.535950,306.490417 242.344269,334.836639 
	C239.065353,338.133545 234.940414,340.498627 232.170380,344.697876 
	C226.614944,349.004333 221.072098,352.932831 215.591904,356.946838 
	C214.750153,357.563416 214.015289,358.228394 212.953827,357.878601 
	C211.353485,357.351227 212.054886,355.926453 212.036728,354.909851 
	C211.959381,350.582825 212.015854,346.253357 212.095001,341.461639 
z"/>
<path fill="#8A63F0" opacity="1.000000" stroke="none" 
	d="
M287.925079,209.574448 
	C287.235779,210.912247 286.466827,212.009476 285.534210,212.943253 
	C262.479156,236.026840 239.411987,259.098389 216.320389,282.145386 
	C215.282288,283.181488 213.994644,283.967529 212.495682,284.934113 
	C212.118912,276.307556 212.069672,267.616882 212.093185,258.462463 
	C223.948700,245.573929 236.319473,233.732895 248.352493,221.556427 
	C254.429230,215.407257 260.543396,209.294281 266.705170,203.230362 
	C268.325806,201.635452 269.759399,199.609406 272.779297,199.825134 
	C278.786530,201.810394 282.132263,207.339005 287.925079,209.574448 
z"/>
<path fill="#6385EB" opacity="1.000000" stroke="none" 
	d="
M232.444977,344.902832 
	C230.178452,342.063721 233.344376,341.278778 234.579269,340.037964 
	C265.698822,308.769440 296.912781,277.594879 328.090515,246.384186 
	C329.483459,244.989761 331.205170,243.833771 331.934296,241.495056 
	C335.274109,243.215378 338.549774,245.263260 341.979736,247.629761 
	C342.384216,251.222275 340.048553,253.063843 338.062439,254.995193 
	C320.837891,271.744812 304.704041,289.608215 286.578400,305.437927 
	C285.830750,306.090881 285.162292,306.834625 284.264374,307.840332 
	C273.556061,315.673187 263.088318,323.256226 252.577698,330.779388 
	C246.002747,335.485504 239.363235,340.101410 232.444977,344.902832 
z"/>
<path fill="#935BF1" opacity="1.000000" stroke="none" 
	d="
M272.967102,199.637543 
	C269.232147,202.622986 266.281372,206.280243 262.984070,209.556992 
	C247.977783,224.469818 233.053192,239.464813 218.070770,254.401733 
	C216.574387,255.893570 215.353958,257.879608 212.517776,257.984192 
	C212.117508,251.640854 212.069092,245.282974 212.093689,238.461639 
	C213.597885,235.552353 215.424652,233.449219 217.437271,231.448303 
	C229.904953,219.053055 242.317825,206.602692 254.753967,194.175705 
	C256.152557,192.778152 257.393616,191.166489 259.680908,190.324829 
	C264.273071,193.224350 268.548553,196.272812 272.967102,199.637543 
z"/>
<path fill="#A64BF4" opacity="1.000000" stroke="none" 
	d="
M227.701141,167.927628 
	C234.953491,172.677490 241.858719,177.467163 248.902191,182.570816 
	C250.701859,185.354263 248.937836,187.033249 247.490707,188.518005 
	C237.637482,198.627655 227.643051,208.598511 217.556747,218.475891 
	C216.263031,219.742828 214.834183,220.997696 212.452667,220.224762 
	C212.118179,207.969772 212.067474,195.948151 212.090698,183.463043 
	C216.386185,177.138443 221.090302,171.764984 227.701141,167.927628 
z"/>
<path fill="#9B54F2" opacity="1.000000" stroke="none" 
	d="
M212.095139,220.454971 
	C213.594147,219.857483 214.549347,218.946243 215.493561,218.001495 
	C226.010513,207.478516 236.541641,196.969650 247.029068,186.417358 
	C247.815277,185.626282 248.296127,184.531708 248.979691,183.231506 
	C253.135773,184.248215 255.959213,187.491684 259.682404,190.023468 
	C259.856934,191.609726 258.933289,192.566727 257.983093,193.516510 
	C243.744507,207.749115 229.514374,221.990173 215.255539,236.202454 
	C214.570679,236.885086 213.638809,237.319901 212.494324,237.934143 
	C212.118256,232.304962 212.069839,226.611771 212.095139,220.454971 
z"/>
<path fill="#5E89EA" opacity="1.000000" stroke="none" 
	d="
M284.396057,308.060211 
	C284.138336,305.640503 286.112213,304.417694 287.602142,302.923950 
	C304.034760,286.449188 320.503754,270.010742 336.938477,253.538086 
	C338.575989,251.896790 340.052643,250.095016 341.869019,248.158020 
	C345.725861,250.446198 349.377838,252.863281 352.885071,255.474701 
	C354.744080,256.858887 355.996002,257.961304 352.865112,260.119293 
	C331.348145,274.949982 310.032623,290.072723 288.620056,305.055481 
	C287.283661,305.990570 286.578278,307.738495 284.396057,308.060211 
z"/>
<path fill="#B241F5" opacity="1.000000" stroke="none" 
	d="
M227.907837,167.571686 
	C223.398575,173.315643 218.594635,178.586716 212.492584,182.935699 
	C212.164627,174.420746 212.164627,165.841949 212.164627,156.478409 
	C217.767975,160.348755 222.767700,163.802155 227.907837,167.571686 
z"/>
</svg>