<svg version="1.1" id="Layer_1" xmlns="http://www.w3.org/2000/svg" xmlns:xlink="http://www.w3.org/1999/xlink" x="0px" y="0px"
	 width="100%" viewBox="0 0 512 512" enable-background="new 0 0 512 512" xml:space="preserve">

<path fill="#C82FED" opacity="1.000000" stroke="none" 
	d="
M272.590332,368.726349 
	C272.889099,380.654755 273.028320,392.307434 272.967346,403.959045 
	C272.934357,410.265869 266.210144,416.187042 259.999908,417.132507 
	C250.007736,418.653717 243.823364,411.985352 236.850677,407.235931 
	C208.926453,388.215302 181.073196,369.086304 153.397186,349.706818 
	C131.838364,334.610809 110.260597,319.549286 88.475990,304.779236 
	C72.077095,293.660736 55.901737,282.212860 39.607632,270.939392 
	C30.504555,264.641266 30.323668,249.733200 39.338879,243.304031 
	C40.910851,242.182983 42.614693,241.246872 44.575836,240.087830 
	C48.466244,238.927063 51.514793,239.821304 54.757046,241.682953 
	C89.515823,261.640747 124.158035,281.799957 158.881042,301.819244 
	C191.734360,320.760559 224.611771,339.660736 257.368256,358.768463 
	C262.488708,361.755341 268.276886,363.805969 272.590332,368.726349 
z"/>
<path fill="#C136ED" opacity="1.000000" stroke="none" 
	d="
M272.907043,368.538849 
	C267.306671,368.294220 263.195068,364.614471 258.632568,362.004761 
	C229.466080,345.321716 200.397873,328.466736 171.309341,311.647552 
	C145.100418,296.493439 118.909065,281.308929 92.705612,266.145325 
	C78.884636,258.147308 65.074036,250.130844 51.202938,242.220566 
	C49.505539,241.252594 47.461399,240.892639 45.235992,240.100616 
	C51.366783,235.359222 57.839531,230.768143 64.634148,226.039398 
	C68.185577,225.476120 71.035042,226.168808 73.952629,227.833389 
	C99.641266,242.489716 125.167320,257.427185 150.814911,272.153595 
	C178.046432,287.789459 205.170776,303.610657 232.418411,319.218903 
	C244.668610,326.236206 256.879578,333.326294 269.059967,340.466797 
	C270.396759,341.250458 271.409241,342.283417 272.590637,343.726257 
	C272.882416,352.026276 272.931610,360.050720 272.907043,368.538849 
z"/>
<path fill="#9A5DEC" opacity="1.000000" stroke="none" 
	d="
M480.592712,338.727112 
	C480.881500,345.025513 480.929718,351.049652 480.905640,357.537170 
	C478.041595,360.538971 475.501862,358.759827 473.093475,357.388794 
	C455.903900,347.603455 438.812164,337.647034 421.687592,327.749054 
	C394.489319,312.028442 367.279602,296.327240 340.091583,280.588776 
	C316.501038,266.932831 292.821259,253.430939 269.299957,239.655655 
	C266.629486,238.091705 263.532318,236.579086 264.740723,232.174164 
	C269.539551,227.520432 274.941193,224.321823 280.606873,220.933868 
	C297.345581,232.573486 315.385864,241.500565 332.662659,251.695068 
	C357.423187,266.305481 382.440582,280.482178 407.351624,294.838318 
	C429.955078,307.864563 452.519714,320.958282 475.125397,333.980499 
	C477.191132,335.170471 479.028931,336.470276 480.592712,338.727112 
z"/>
<path fill="#A94EED" opacity="1.000000" stroke="none" 
	d="
M480.611786,383.712250 
	C480.882324,388.693970 480.930542,393.386200 480.906006,398.539642 
	C478.454071,401.223511 476.254639,399.950165 474.025879,398.681274 
	C450.333923,385.193115 426.775238,371.473907 403.162659,357.848053 
	C376.238495,342.311188 349.322693,326.759796 322.387390,311.242310 
	C297.902222,297.136322 273.487061,282.909149 248.963806,268.869019 
	C246.520096,267.469940 244.307297,265.674744 242.133240,263.304321 
	C240.045761,256.531403 240.110046,250.384155 245.596146,245.064392 
	C260.009674,256.180542 276.431885,263.622681 291.803589,272.770721 
	C318.227081,288.495972 345.006531,303.620087 371.636566,318.996155 
	C398.846008,334.706726 426.038727,350.446869 453.285645,366.092651 
	C460.924591,370.479095 468.511169,374.954315 476.127228,379.379333 
	C477.889374,380.403107 479.488556,381.525726 480.611786,383.712250 
z"/>
<path fill="#9265EC" opacity="1.000000" stroke="none" 
	d="
M480.905518,338.540039 
	C472.910431,336.644409 466.448212,331.505096 459.422913,327.502655 
	C425.054474,307.922333 390.852051,288.050690 356.592010,268.280121 
	C332.695862,254.490265 308.797852,240.703537 284.912720,226.894577 
	C282.886719,225.723282 280.809265,224.500320 280.978821,221.257568 
	C284.379761,218.252808 287.469025,215.191498 291.648041,213.017517 
	C305.736938,220.896683 319.532501,228.874191 333.343964,236.823593 
	C360.698761,252.568100 388.005585,268.395569 415.350830,284.156647 
	C435.208191,295.601959 455.071259,307.037628 474.884796,318.558533 
	C477.001343,319.789215 479.337860,320.918671 480.611206,323.711304 
	C480.881531,328.693390 480.929657,333.386017 480.905518,338.540039 
z"/>
<path fill="#BC3BED" opacity="1.000000" stroke="none" 
	d="
M272.906494,343.542053 
	C267.304749,343.293762 263.192230,339.612427 258.628296,337.001953 
	C229.452408,320.314178 200.378525,303.448059 171.275513,286.632965 
	C146.638794,272.398407 122.057396,258.067078 97.351501,243.953659 
	C86.820671,237.937836 76.734749,231.095947 65.221664,226.137634 
	C68.066040,223.670700 71.176056,221.439682 74.604813,219.079468 
	C78.926483,216.725616 82.515373,217.969971 86.141243,220.080460 
	C125.616997,243.057693 165.238358,265.783417 204.763107,288.676361 
	C225.459702,300.663940 246.146423,312.673981 266.967529,324.446899 
	C269.189423,325.703217 271.175415,327.106018 272.609253,329.707153 
	C272.882202,334.361359 272.930969,338.721802 272.906494,343.542053 
z"/>
<path fill="#A057EC" opacity="1.000000" stroke="none" 
	d="
M264.606567,231.930939 
	C265.450256,234.631042 267.462494,236.057251 269.679413,237.334579 
	C306.883057,258.770172 344.099426,280.183777 381.277618,301.663361 
	C409.953522,318.230774 438.545349,334.944031 467.268127,351.429443 
	C471.411774,353.807709 475.220184,356.987732 480.470703,357.976318 
	C480.881409,362.028198 480.929565,366.055908 480.905426,370.541931 
	C477.827850,373.693329 475.105438,371.655121 472.624359,370.224243 
	C459.370880,362.580902 446.085052,354.993347 432.848755,347.320190 
	C405.801025,331.640625 378.731781,315.997925 351.637115,300.400024 
	C326.561127,285.964233 301.570465,271.380463 276.436157,257.046448 
	C270.657440,253.750854 264.931854,250.362167 259.198059,246.994171 
	C256.518250,245.420074 252.831573,243.978790 254.733276,239.177307 
	C258.056641,236.583618 261.154724,234.285522 264.606567,231.930939 
z"/>
<path fill="#A354EC" opacity="1.000000" stroke="none" 
	d="
M254.606659,238.936340 
	C254.739960,241.995956 257.099365,243.233994 259.231659,244.468079 
	C283.574249,258.556702 307.946167,272.594574 332.307068,286.651550 
	C355.081787,299.793243 377.855164,312.937317 400.624603,326.088135 
	C425.123657,340.237976 449.610596,354.408752 474.127106,368.528229 
	C475.985046,369.598236 477.871307,370.744812 480.469818,370.975952 
	C480.881866,375.028503 480.930573,379.056671 480.906677,383.543304 
	C471.962585,380.511292 464.227448,374.942902 456.013397,370.270691 
	C428.280579,354.495941 400.681335,338.485962 373.060394,322.515137 
	C346.733704,307.292725 320.454590,291.988037 294.133453,276.756012 
	C279.893768,268.515533 265.592651,260.381134 251.362213,252.124908 
	C248.851959,250.668488 245.747513,249.517395 245.943024,245.304230 
	C245.918549,244.920639 245.961716,244.970627 245.929169,244.976257 
	C246.189636,244.802231 246.447784,244.581772 246.824219,244.115067 
	C246.977386,243.909622 246.977005,243.978302 246.943115,243.972778 
	C247.086182,243.828598 247.263153,243.689957 247.719910,243.363068 
	C250.084747,241.780212 252.169754,240.385574 254.606659,238.936340 
z"/>
<path fill="#B641ED" opacity="1.000000" stroke="none" 
	d="
M83.048302,214.293747 
	C86.553757,210.385208 90.850945,207.678284 95.530838,204.983521 
	C99.775368,202.724045 103.356133,203.432266 107.108604,205.626740 
	C145.223480,227.916626 183.464478,249.989975 221.830643,271.843811 
	C228.798691,275.812927 234.597610,281.326263 241.353027,285.540314 
	C243.041718,286.593719 244.709717,287.662720 246.796066,288.764954 
	C247.111847,288.959808 247.574692,289.020447 247.795441,289.096252 
	C248.202072,289.299377 248.387924,289.426758 248.842621,289.758911 
	C249.567841,290.295380 250.024216,290.627045 250.748810,291.064178 
	C251.202820,291.297882 251.388611,291.426178 251.844971,291.758148 
	C252.462158,291.977386 252.727386,292.132324 252.975739,292.655884 
	C253.643921,293.821472 254.652649,294.167908 255.847839,294.795166 
	C261.316437,298.368195 266.577240,301.691833 271.694885,305.222931 
	C274.001770,306.814667 272.814758,309.468719 272.966370,311.661865 
	C273.113678,313.793091 272.985840,315.943329 272.906097,318.542847 
	C270.386444,321.337585 268.122253,319.687378 266.012817,318.510254 
	C254.108582,311.867676 242.384811,304.909058 230.562653,298.121979 
	C203.023682,282.312012 175.578354,266.339752 148.052750,250.506195 
	C129.893936,240.060730 111.724251,229.631256 93.654770,219.034546 
	C90.281631,217.056396 86.314552,216.951492 83.048302,214.293747 
z"/>
<path fill="#AE49ED" opacity="1.000000" stroke="none" 
	d="
M241.934692,263.398621 
	C253.331543,267.715302 263.486206,274.766602 274.165344,280.841492 
	C301.777100,296.548584 329.250854,312.498627 356.757599,328.389893 
	C382.968872,343.532806 409.148529,358.730438 435.349365,373.891418 
	C449.312958,381.971436 463.286133,390.034973 477.278381,398.065277 
	C478.116730,398.546356 479.162720,398.665588 480.472656,398.977020 
	C481.619843,402.547058 479.935730,405.565186 478.434082,408.870544 
	C475.993134,410.266052 474.293427,409.092407 472.561279,408.093048 
	C427.405396,382.040588 382.341217,355.829163 337.087158,329.946686 
	C332.658600,327.413849 328.721313,323.999786 323.342651,322.705475 
	C305.933197,311.011353 288.880615,299.165558 271.786896,287.379425 
	C263.649445,281.768616 255.366669,276.366211 247.294876,270.663940 
	C244.922043,268.987671 242.782654,266.806702 241.934692,263.398621 
z"/>
<path fill="#7E7AEB" opacity="1.000000" stroke="none" 
	d="
M317.761139,195.196945 
	C321.727844,192.254486 325.492004,189.622940 329.613281,186.932846 
	C352.335022,201.318161 375.799530,213.893555 398.772675,227.301727 
	C424.645508,242.402283 450.651550,257.275208 476.604858,272.238098 
	C478.080780,273.089050 479.352600,274.090027 480.592102,275.727417 
	C480.881195,280.692780 480.929016,285.385040 480.904907,290.538574 
	C478.557098,292.996948 476.375397,291.735382 474.395416,290.592712 
	C450.488159,276.795807 426.596405,262.971985 402.686554,249.179398 
	C377.479797,234.638641 352.318573,220.018845 327.064758,205.559738 
	C324.897308,204.318756 322.763672,203.017700 320.683868,201.652893 
	C318.559692,200.258957 316.661194,198.536774 317.761139,195.196945 
z"/>
<path fill="#8573EC" opacity="1.000000" stroke="none" 
	d="
M317.641327,195.029495 
	C318.511627,197.848160 320.770416,199.223129 323.124969,200.579010 
	C360.316528,221.996475 397.508423,243.413544 434.675354,264.873688 
	C448.360504,272.775452 461.974304,280.800751 475.641449,288.733826 
	C477.072693,289.564606 478.645477,290.151520 480.492798,290.925720 
	C480.881042,295.027466 480.929047,299.055115 480.905273,303.541077 
	C478.488464,305.952240 476.508270,304.480286 474.459991,303.354401 
	C457.693512,294.138458 441.278687,284.307892 424.702118,274.762512 
	C397.461426,259.076324 370.207275,243.411148 343.056396,227.568985 
	C332.567322,221.448776 321.874176,215.677872 311.573639,209.236862 
	C309.224548,207.767960 306.339355,206.502960 307.780640,202.464966 
	C310.489014,199.012375 314.141541,197.409195 317.641327,195.029495 
z"/>
<path fill="#9A5DEC" opacity="1.000000" stroke="none" 
	d="
M147.801025,169.242920 
	C152.795853,164.207138 158.689865,160.961670 164.563248,157.106415 
	C167.259720,155.551468 169.432220,156.571915 171.431717,157.744461 
	C200.478958,174.778702 229.854111,191.247070 258.825500,208.411224 
	C260.983032,209.689438 263.163025,211.097702 262.203186,214.531342 
	C255.893509,219.211166 249.808380,223.592896 243.369110,227.902313 
	C239.503952,223.044891 234.003708,221.044052 229.151062,218.269867 
	C204.165314,203.985855 179.357712,189.393600 154.375626,175.103653 
	C151.885147,173.679077 148.677811,172.885452 147.801025,169.242920 
z"/>
<path fill="#A156EC" opacity="1.000000" stroke="none" 
	d="
M147.706512,168.961914 
	C178.702560,186.634186 209.460388,204.359161 240.219406,222.082016 
	C242.207535,223.227524 244.766754,224.019562 243.160797,227.529327 
	C238.379364,231.293671 233.831131,234.847183 230.355469,239.973358 
	C197.774963,220.136337 164.659607,201.623657 131.641495,182.943924 
	C131.048798,182.608612 130.553680,182.196579 130.018372,181.318420 
	C135.009048,177.396042 140.126556,173.819641 145.560013,170.105209 
	C146.060410,169.828506 146.244858,169.689835 146.718002,169.360199 
	C147.006714,169.169266 147.468567,169.014114 147.706512,168.961914 
z"/>
<path fill="#BA3DED" opacity="1.000000" stroke="none" 
	d="
M82.533386,213.982239 
	C89.302467,212.812988 94.033600,216.686066 99.014275,219.554199 
	C132.324921,238.736298 165.578690,258.017151 198.861877,277.246948 
	C222.636383,290.982941 246.426331,304.692200 270.222046,318.391388 
	C270.778168,318.711548 271.484924,318.770050 272.477386,318.975525 
	C272.881836,322.365051 272.930328,325.729645 272.906128,329.547607 
	C262.369476,325.228424 252.795059,318.860168 242.841766,313.179565 
	C215.243851,297.428864 187.751480,281.493134 160.230896,265.607086 
	C135.591766,251.384369 110.971359,237.129196 86.340637,222.891891 
	C83.033371,220.980194 79.838036,218.753372 75.331795,218.964203 
	C77.342422,217.302551 79.761284,215.654831 82.533386,213.982239 
z"/>
<path fill="#B245ED" opacity="1.000000" stroke="none" 
	d="
M323.320160,322.983002 
	C324.746796,319.524536 326.837524,321.912994 328.402771,322.782898 
	C342.064423,330.375366 355.680817,338.051636 369.234192,345.836151 
	C396.629700,361.570923 423.992523,377.362885 451.335907,393.188141 
	C460.112793,398.267822 468.786255,403.526184 477.806610,408.875732 
	C475.508759,418.109955 461.353241,419.057495 454.909973,414.412384 
	C447.129272,408.803131 439.268463,403.302460 431.369843,397.860016 
	C408.072510,381.807190 384.714233,365.842773 361.435120,349.763641 
	C354.073395,344.678864 346.886047,339.341614 339.298615,333.971008 
	C338.793762,333.696289 338.609192,333.570496 338.158539,333.241028 
	C333.140869,329.736023 328.389282,326.434692 323.320160,322.983002 
z"/>
<path fill="#A94EED" opacity="1.000000" stroke="none" 
	d="
M129.575806,181.102570 
	C135.352509,180.668427 139.167496,184.406601 143.388657,186.816055 
	C171.051559,202.606049 198.575470,218.639465 226.160065,234.566895 
	C228.105392,235.690140 229.841721,236.866348 230.009949,239.743988 
	C227.248688,246.127899 225.023621,252.260498 225.902374,259.525574 
	C223.525650,260.001099 223.017090,258.219788 223.017532,256.606659 
	C223.018677,252.423843 220.347321,250.482971 217.185532,248.669968 
	C190.780167,233.528809 164.399017,218.344284 138.116714,202.991562 
	C131.110229,198.898727 123.675301,195.524673 117.001144,190.326065 
	C121.015144,187.058517 125.137604,184.145599 129.575806,181.102570 
z"/>
<path fill="#B245ED" opacity="1.000000" stroke="none" 
	d="
M246.970337,288.642212 
	C244.816360,289.061737 242.990662,287.972809 241.145447,286.769409 
	C214.547943,269.423157 186.492340,254.555298 159.101578,238.556931 
	C141.599152,228.334137 124.024597,218.234650 106.543465,207.975784 
	C103.453629,206.162491 100.409927,204.656860 96.310226,204.967285 
	C98.953667,201.859543 102.615036,199.557648 106.572845,197.089523 
	C110.629738,195.855591 113.992104,196.701523 117.307671,198.629044 
	C139.291977,211.409882 161.361557,224.043457 183.356415,236.806412 
	C195.289093,243.730591 207.238876,250.625854 219.204956,257.491516 
	C221.561478,258.843567 223.669189,260.333893 225.586243,262.727661 
	C227.560638,270.912506 231.683701,277.261139 238.225586,282.035370 
	C241.095001,284.129456 243.961166,286.228058 246.970337,288.642212 
z"/>
<path fill="#9265EC" opacity="1.000000" stroke="none" 
	d="
M262.328857,214.803436 
	C261.688324,213.026566 260.518341,211.915588 259.022919,211.052475 
	C227.875626,193.075058 196.729156,175.096237 165.231216,157.042862 
	C168.484894,153.325150 173.144882,151.177567 177.565536,148.103699 
	C180.385239,146.632828 182.720322,147.329025 184.961563,148.620178 
	C212.782089,164.647339 240.544907,180.774689 268.426666,196.695145 
	C270.106750,197.654465 271.179871,199.051956 272.590118,200.723572 
	C275.143005,209.790939 267.350281,211.133774 262.328857,214.803436 
z"/>
<path fill="#7187EB" opacity="1.000000" stroke="none" 
	d="
M480.591766,243.726837 
	C480.881134,248.027847 480.928802,252.055054 480.904907,256.540649 
	C478.492371,258.948090 476.510620,257.491241 474.466156,256.358521 
	C457.894409,247.176987 441.589203,237.530670 425.179840,228.066818 
	C399.846405,213.456161 374.478943,198.903763 349.248291,184.115601 
	C346.720459,182.634003 343.627686,181.454422 344.738373,177.186584 
	C346.913971,173.637741 350.369598,172.258163 353.601135,170.064972 
	C359.300751,171.313660 363.394806,175.068253 368.070770,177.731033 
	C395.678894,193.452820 423.102356,209.496826 450.665802,225.297333 
	C459.467590,230.342865 468.123627,235.641724 477.039642,240.486954 
	C478.404541,241.228683 479.414246,242.277847 480.591766,243.726837 
z"/>
<path fill="#797FEB" opacity="1.000000" stroke="none" 
	d="
M480.904907,275.550964 
	C473.050903,274.520081 467.125214,269.311310 460.543610,265.556335 
	C422.095581,243.620865 383.825104,221.374252 345.497253,199.228195 
	C341.462555,196.896927 337.458954,194.511612 333.412903,192.200394 
	C331.585449,191.156494 330.139404,189.898209 329.996124,187.247437 
	C332.785248,185.465805 334.274994,182.348312 337.607605,181.066879 
	C348.970245,188.960434 361.222504,194.979843 372.945709,201.868393 
	C397.724579,216.428436 422.713959,230.629532 447.598663,245.009659 
	C457.090759,250.494827 466.550751,256.035980 476.082153,261.452240 
	C477.861145,262.463165 479.480103,263.525635 480.611267,265.711426 
	C480.881042,269.033905 480.928741,272.067657 480.904907,275.550964 
z"/>
<path fill="#8D6AEC" opacity="1.000000" stroke="none" 
	d="
M480.905304,323.555298 
	C470.238983,319.115692 460.494385,312.713989 450.410339,306.920837 
	C423.140137,291.254456 395.903564,275.529572 368.654205,259.826874 
	C344.432251,245.868729 320.208618,231.913574 295.994904,217.941147 
	C294.236603,216.926544 292.727203,215.628235 292.041443,213.219498 
	C293.433228,211.188324 296.041351,211.161667 297.609741,209.058868 
	C303.309418,211.279678 307.996307,214.854553 313.088226,217.737091 
	C333.585144,229.340363 353.926819,241.217041 374.320404,253.001205 
	C397.606476,266.456787 420.863251,279.964752 444.205353,293.322113 
	C455.605804,299.845947 467.120087,306.171112 478.403717,312.900635 
	C479.131714,313.334808 479.775085,313.833557 480.586426,314.726105 
	C480.881256,317.703735 480.929230,320.406799 480.905304,323.555298 
z"/>
<path fill="#599FEB" opacity="1.000000" stroke="none" 
	d="
M380.797485,151.458862 
	C384.427338,148.779587 387.824524,146.394547 391.577332,143.967346 
	C402.652527,148.502075 412.298584,155.042450 422.356873,160.801041 
	C440.354248,171.104980 458.394867,181.342514 476.197906,191.986221 
	C477.789246,192.937637 479.280121,193.921997 480.592590,195.727341 
	C480.881073,201.024597 480.928589,206.049225 480.904724,211.535797 
	C478.558411,213.990067 476.374054,212.745102 474.390320,211.597870 
	C450.481201,197.770538 426.556396,183.970245 402.645935,170.145203 
	C396.596069,166.647186 390.412781,163.370743 384.504517,159.641785 
	C381.749329,157.902847 378.473755,156.070679 380.797485,151.458862 
z"/>
<path fill="#896EEC" opacity="1.000000" stroke="none" 
	d="
M307.662598,202.191376 
	C308.090668,205.284424 310.694427,206.155075 312.793457,207.367538 
	C354.150665,231.257126 395.521942,255.122406 436.897705,278.979889 
	C451.307251,287.288483 465.736572,295.562836 480.495178,303.926147 
	C480.881256,306.044159 480.929047,308.088837 480.905090,310.566650 
	C479.015747,312.889893 477.200897,312.008087 475.419342,310.961151 
	C460.563660,302.231140 445.378082,294.084656 430.469055,285.442261 
	C416.725525,277.475464 402.954468,269.548553 389.171631,261.645752 
	C379.420441,256.054626 369.755371,250.306671 359.979950,244.765579 
	C348.185242,238.079865 336.591003,231.047714 324.714050,224.509521 
	C317.176605,220.360214 309.921326,215.725281 302.370880,211.599213 
	C301.327881,211.029266 300.491608,210.219971 300.264679,208.580444 
	C300.342499,207.965958 300.429047,207.729233 300.737061,207.186096 
	C303.080627,205.325241 305.202728,203.770782 307.662598,202.191376 
z"/>
<path fill="#AE49ED" opacity="1.000000" stroke="none" 
	d="
M225.902298,262.629578 
	C219.609879,261.384064 214.556396,257.444000 209.125137,254.339630 
	C179.701614,237.522110 150.392197,220.504715 121.072838,203.505508 
	C116.753670,201.001282 112.548195,198.319229 107.233437,197.101257 
	C109.594437,194.123856 113.812790,193.408188 116.578796,190.100235 
	C124.769653,191.133789 130.761688,196.253220 137.342117,199.997803 
	C164.234055,215.300674 190.856110,231.080368 217.834595,246.226608 
	C223.477676,249.394745 225.518097,253.418045 225.639252,259.635925 
	C225.877518,260.736298 225.925797,261.495300 225.902298,262.629578 
z"/>
<path fill="#50A8EA" opacity="1.000000" stroke="none" 
	d="
M480.904846,195.537109 
	C474.167816,194.955292 469.265259,190.353607 463.704651,187.206039 
	C440.903687,174.299622 418.324524,161.001358 395.659058,147.855347 
	C394.231506,147.027359 392.604614,146.442612 392.021179,144.266022 
	C391.932892,143.925186 391.965637,143.980881 391.933411,143.983109 
	C392.193634,143.802048 392.450012,143.576996 392.829285,143.109802 
	C392.983093,142.903488 392.978180,142.977371 392.941284,142.974182 
	C393.083984,142.830124 393.263550,142.689224 393.729370,142.360489 
	C397.784302,139.520554 401.553040,136.868469 405.669800,134.192886 
	C428.898865,148.322052 452.493469,161.251404 475.727509,174.798843 
	C477.468933,175.814270 479.190308,176.757568 480.593872,178.729279 
	C480.881134,184.357925 480.928650,189.716080 480.904846,195.537109 
z"/>
<path fill="#6A8EEB" opacity="1.000000" stroke="none" 
	d="
M480.904846,243.550995 
	C474.550354,242.963593 469.723267,238.907639 464.444397,235.886826 
	C435.343597,219.234100 406.339935,202.411667 377.302277,185.648529 
	C370.689545,181.831070 364.098999,177.973999 357.442108,174.235123 
	C355.842102,173.336487 355.202393,171.862534 354.144836,170.187286 
	C356.699829,167.946289 359.480560,165.965866 362.614166,163.930176 
	C371.276001,168.013397 379.031311,173.119797 387.073364,177.724594 
	C414.708527,193.548141 442.207672,209.608597 469.830627,225.454651 
	C473.644287,227.642380 478.119720,229.120331 480.611694,233.710754 
	C480.880951,237.033630 480.928619,240.067490 480.904846,243.550995 
z"/>
<path fill="#7583EB" opacity="1.000000" stroke="none" 
	d="
M480.904907,265.554688 
	C471.219879,262.120850 462.685547,256.264343 453.755737,251.143753 
	C426.342102,235.424118 398.993225,219.591492 371.615326,203.809479 
	C362.104553,198.326996 352.550629,192.918304 343.089081,187.352341 
	C340.868286,186.045914 338.197662,184.897049 337.963562,181.302155 
	C337.924805,180.935287 337.972168,180.975830 337.951538,180.957214 
	C338.421143,180.586105 339.017853,180.512497 339.764679,180.096466 
	C341.401215,178.917053 342.839844,177.955032 344.618042,176.939178 
	C345.304688,179.337845 347.124390,180.429642 349.056427,181.545181 
	C384.783722,202.173553 420.481476,222.853165 456.216736,243.467728 
	C464.135345,248.035721 472.173553,252.396393 480.494995,256.925781 
	C480.881042,259.702423 480.928772,262.405853 480.904907,265.554688 
z"/>
<path fill="#6098EB" opacity="1.000000" stroke="none" 
	d="
M380.685852,151.179565 
	C380.435364,155.277115 383.661407,156.563354 386.331146,158.116470 
	C401.264465,166.803986 416.237274,175.423615 431.195618,184.068069 
	C446.009918,192.629318 460.817017,201.203079 475.646423,209.738052 
	C477.079193,210.562668 478.647400,211.151917 480.493042,211.924088 
	C480.880981,215.694122 480.928650,219.390518 480.904816,223.542786 
	C478.562286,225.991867 476.377319,224.746979 474.401093,223.599930 
	C450.408539,209.674164 426.370636,195.826889 402.350830,181.948318 
	C393.001617,176.546356 383.616028,171.205872 374.350525,165.661469 
	C372.090912,164.309326 369.598999,162.906479 370.737732,159.188171 
	C374.085480,156.321823 377.213531,153.758163 380.685852,151.179565 
z"/>
<path fill="#8B6CEC" opacity="1.000000" stroke="none" 
	d="
M272.905212,200.541641 
	C266.459717,199.297760 261.282440,195.248199 255.699249,192.058136 
	C231.159180,178.036774 206.742188,163.800003 182.264404,149.669418 
	C181.123306,149.010681 179.826553,148.621582 178.242477,148.036499 
	C180.475235,144.980835 184.130447,143.476929 187.576569,141.101715 
	C188.074158,140.824692 188.254822,140.685684 188.722321,140.360535 
	C189.009140,140.174408 189.464386,140.014557 189.700226,139.963715 
	C192.302063,139.370804 194.407761,139.765045 196.582870,141.009644 
	C219.918442,154.362350 243.085632,168.006989 266.451263,181.307755 
	C268.713562,182.595566 271.235504,183.757156 272.609680,186.707611 
	C272.881348,191.360199 272.929260,195.720932 272.905212,200.541641 
z"/>
<path fill="#47B1EA" opacity="1.000000" stroke="none" 
	d="
M480.904846,178.536865 
	C472.678467,177.200241 466.275848,171.883377 459.224518,167.957870 
	C442.689117,158.752579 426.440582,149.032333 410.060059,139.547989 
	C408.150269,138.442230 406.246857,137.417633 406.037964,134.523254 
	C410.297302,130.928116 414.194244,127.135818 419.597351,124.938995 
	C433.778351,132.987549 447.725922,140.871460 461.545685,148.975525 
	C466.537537,151.902802 471.648682,154.620270 476.584137,157.649002 
	C478.190063,158.634476 479.530945,159.751328 480.612122,161.710434 
	C480.880859,167.356140 480.928436,172.715042 480.904846,178.536865 
z"/>
<path fill="#3DBBEA" opacity="1.000000" stroke="none" 
	d="
M480.904327,161.533661 
	C472.081207,158.387222 464.306671,152.994492 456.106018,148.383652 
	C445.728760,142.549057 435.453644,136.532379 425.156219,130.556717 
	C423.060303,129.340439 420.508942,128.527557 419.992584,125.246475 
	C424.293671,119.949554 430.391327,117.335945 435.685120,113.190918 
	C449.334564,121.310364 462.816956,129.140427 476.442383,136.721863 
	C478.122375,137.656647 479.198334,139.065277 480.596344,140.729248 
	C480.880768,147.688339 480.928070,154.379211 480.904327,161.533661 
z"/>
<path fill="#6593EB" opacity="1.000000" stroke="none" 
	d="
M370.601166,158.940735 
	C371.273712,161.106384 372.808807,162.268829 374.611084,163.310120 
	C408.584442,182.938538 442.542480,202.593460 476.516449,222.220795 
	C477.660614,222.881805 478.937683,223.312759 480.493042,223.924789 
	C480.880951,227.032654 480.928619,230.066650 480.904785,233.550201 
	C469.266541,227.479065 457.654755,221.036804 446.142273,214.421677 
	C420.781616,199.849335 395.461121,185.206985 370.154816,170.540375 
	C367.480835,168.990646 364.315674,167.903488 363.040283,164.221802 
	C364.954742,161.594849 367.509552,160.160751 370.601166,158.940735 
z"/>
<path fill="#8573EC" opacity="1.000000" stroke="none" 
	d="
M272.905334,186.538239 
	C263.834473,183.392883 255.978409,177.712708 247.593140,172.999741 
	C228.476212,162.254944 209.498169,151.263031 190.199875,140.142212 
	C192.488556,136.162277 196.876144,134.879059 200.571854,132.101624 
	C203.604553,131.308426 206.094254,131.872955 208.465591,133.278366 
	C228.276382,145.019592 248.396347,156.229004 268.199860,167.983582 
	C269.791382,168.928268 271.281097,169.911346 272.589783,171.723236 
	C272.881287,176.692200 272.929230,181.384613 272.905334,186.538239 
z"/>
<path fill="#7E7AEB" opacity="1.000000" stroke="none" 
	d="
M272.905151,171.538544 
	C265.440094,170.479858 259.867310,165.411469 253.524124,161.899094 
	C236.074539,152.236862 218.848145,142.171555 201.211380,132.115112 
	C204.678391,129.386002 208.467468,126.807503 212.572815,124.092964 
	C215.268570,123.090469 217.361115,123.681244 219.502274,124.923698 
	C235.990601,134.491348 252.452408,144.105667 269.045593,153.491119 
	C270.392365,154.252869 271.408722,155.279251 272.589355,156.722839 
	C272.881165,161.692307 272.929108,166.384796 272.905151,171.538544 
z"/>
<path fill="#797FEB" opacity="1.000000" stroke="none" 
	d="
M272.904907,156.537781 
	C266.660278,156.091568 261.999786,152.018997 256.822266,149.127365 
	C242.293716,141.013062 227.947464,132.572342 213.209198,124.108643 
	C215.337387,120.791985 219.152420,119.533089 222.554504,117.111343 
	C223.156052,116.771339 223.423111,116.554329 223.831879,116.113770 
	C223.987549,115.907509 223.979691,115.974289 223.951416,115.956116 
	C227.511612,114.166862 230.645798,114.772057 234.126068,116.841263 
	C245.498703,123.602921 257.011963,130.132477 268.512695,136.678482 
	C270.153351,137.612320 271.500000,138.727493 272.603912,140.698029 
	C272.881042,146.024841 272.928802,151.050293 272.904907,156.537781 
z"/>
<path fill="#7187EB" opacity="1.000000" stroke="none" 
	d="
M272.904846,140.535858 
	C260.684021,135.671539 249.747986,128.153732 238.143753,121.847343 
	C233.876221,119.528130 230.167999,115.709770 224.330078,115.956619 
	C229.666092,111.961830 235.409042,107.985725 241.506622,103.990829 
	C243.839233,103.218613 245.800720,103.308846 247.581909,104.420868 
	C254.591766,108.797195 261.924591,112.616692 268.990265,116.896919 
	C270.465332,117.790497 271.567505,118.930565 272.607300,120.701202 
	C272.880890,127.354836 272.928619,133.713593 272.904846,140.535858 
z"/>
<path fill="#31C7EA" opacity="1.000000" stroke="none" 
	d="
M480.904236,140.533905 
	C473.667725,138.725189 467.700592,134.182724 461.233978,130.594879 
	C454.295471,126.745186 447.428833,122.760391 440.622040,118.682365 
	C438.732117,117.550087 436.250397,116.732307 436.049255,113.525986 
	C441.132690,109.502594 446.234039,105.830757 451.655701,102.019386 
	C459.112305,107.533676 467.346283,111.401978 475.082184,116.080338 
	C477.064178,117.278961 479.010284,118.511490 480.597107,120.731979 
	C480.880768,127.355331 480.927887,133.712845 480.904236,140.533905 
z"/>
<path fill="#8B6CEC" opacity="1.000000" stroke="none" 
	d="
M300.589752,207.940643 
	C305.657227,212.581177 311.707581,215.046143 317.150940,218.385056 
	C326.577179,224.167053 336.425201,229.256699 346.013123,234.781113 
	C355.459076,240.223755 364.764862,245.909393 374.199341,251.372360 
	C385.635712,257.994476 397.140778,264.497986 408.619293,271.047302 
	C423.828796,279.725433 438.768066,288.871246 454.412659,296.793427 
	C463.134949,301.210266 471.119995,307.009674 480.477386,310.974976 
	C480.881134,312.069183 480.928925,313.138641 480.905029,314.604370 
	C478.719971,315.193695 477.025604,314.245422 475.254639,313.218445 
	C441.287537,293.521088 407.304993,273.850250 373.300049,254.218307 
	C350.821991,241.241165 328.290710,228.356232 305.820221,215.366089 
	C303.121063,213.805695 300.076813,212.593338 298.147034,209.303879 
	C297.914185,208.929764 297.928558,208.946716 297.925262,208.935059 
	C298.673828,208.573868 299.381042,208.127838 300.589752,207.940643 
z"/>
<path fill="#26D2EA" opacity="1.000000" stroke="none" 
	d="
M480.904724,120.537895 
	C476.767120,120.824524 474.016449,117.883476 470.731049,116.107002 
	C465.664032,113.367157 460.732025,110.376839 455.753967,107.473587 
	C453.862213,106.370285 452.117004,105.125099 452.000122,102.252182 
	C456.785400,97.027985 462.830475,96.399590 469.149078,97.032570 
	C474.912659,97.609947 480.848694,104.261597 480.985382,110.137978 
	C481.062439,113.449448 480.984100,116.764519 480.904724,120.537895 
z"/>
<path fill="#6593EB" opacity="1.000000" stroke="none" 
	d="
M272.904327,120.536537 
	C263.960724,117.282799 256.070282,111.788475 247.710739,107.144905 
	C245.978439,106.182655 244.243668,105.224869 242.185623,104.118530 
	C246.992889,98.068443 253.501450,96.009361 261.140900,96.991859 
	C266.809753,97.720909 272.844696,104.318161 272.986053,110.143570 
	C273.066345,113.452682 272.984375,116.765724 272.904327,120.536537 
z"/>
<path fill="#B245ED" opacity="1.000000" stroke="none" 
	d="
M255.983170,294.654877 
	C254.939499,294.924438 253.788666,294.840942 253.139099,293.213135 
	C254.259155,292.832825 255.113037,293.481323 255.983170,294.654877 
z"/>
<path fill="#8D6AEC" opacity="1.000000" stroke="none" 
	d="
M300.990845,207.722183 
	C300.241455,208.275650 299.482605,208.548233 298.322845,208.872101 
	C298.425079,207.865280 299.128510,207.063232 300.678650,206.932709 
	C300.966095,207.066895 300.973724,207.254089 300.990845,207.722183 
z"/>
<path fill="#797FEB" opacity="1.000000" stroke="none" 
	d="
M339.655029,179.935699 
	C339.480408,180.200668 338.998260,180.522263 338.223511,180.891220 
	C338.141022,180.230804 338.684113,180.021515 339.655029,179.935699 
z"/>
<path fill="#8573EC" opacity="1.000000" stroke="none" 
	d="
M188.743774,140.140747 
	C188.804230,140.405655 188.569305,140.600723 188.098923,140.861649 
	C188.088470,140.678146 188.283432,140.392609 188.743774,140.140747 
z"/>
<path fill="#599FEB" opacity="1.000000" stroke="none" 
	d="
M393.747986,142.135483 
	C393.811493,142.404388 393.577606,142.600601 393.109161,142.866119 
	C393.096405,142.680115 393.288391,142.389221 393.747986,142.135483 
z"/>
<path fill="#7187EB" opacity="1.000000" stroke="none" 
	d="
M223.724426,115.988647 
	C223.759460,116.165390 223.531372,116.423271 223.088028,116.824684 
	C223.068939,116.668732 223.265121,116.369255 223.724426,115.988647 
z"/>
<path fill="#599FEB" opacity="1.000000" stroke="none" 
	d="
M392.721680,142.988434 
	C392.762299,143.164368 392.541504,143.425232 392.110901,143.835724 
	C392.087494,143.681335 392.273865,143.377335 392.721680,142.988434 
z"/>
<path fill="#A94EED" opacity="1.000000" stroke="none" 
	d="
M247.737823,243.144775 
	C247.798767,243.402847 247.568390,243.595703 247.108917,243.860352 
	C247.098129,243.683075 247.287018,243.398895 247.737823,243.144775 
z"/>
<path fill="#A94EED" opacity="1.000000" stroke="none" 
	d="
M246.714661,243.989410 
	C246.754944,244.166290 246.532486,244.422974 246.103333,244.830750 
	C246.081741,244.677643 246.266846,244.373428 246.714661,243.989410 
z"/>
<path fill="#9A5DEC" opacity="1.000000" stroke="none" 
	d="
M146.738525,169.135071 
	C146.797226,169.400940 146.558884,169.597656 146.083832,169.863281 
	C146.074097,169.678421 146.272217,169.389648 146.738525,169.135071 
z"/>
<path fill="#B245ED" opacity="1.000000" stroke="none" 
	d="
M249.021576,289.714783 
	C248.829803,289.845886 248.572769,289.688019 248.178284,289.331024 
	C248.321365,289.269989 248.626541,289.367950 249.021576,289.714783 
z"/>
<path fill="#B245ED" opacity="1.000000" stroke="none" 
	d="
M252.024918,291.712646 
	C251.833130,291.844055 251.575363,291.686066 251.179626,291.328735 
	C251.322784,291.267578 251.628540,291.365540 252.024918,291.712646 
z"/>
<path fill="#AE49ED" opacity="1.000000" stroke="none" 
	d="
M337.983551,333.282227 
	C338.171234,333.154999 338.426056,333.311523 338.817657,333.664490 
	C338.677094,333.723724 338.375854,333.625366 337.983551,333.282227 
z"/>
</svg>